<?xml version="1.0" encoding="UTF-8"?>
<!--?xml version="1.0" encoding="UTF-8" standalone="no"?-->
<svg width="91.281mm" height="87.117mm" version="1.1" xmlns="http://www.w3.org/2000/svg">
 <defs>
  <marker id="Arrow1Mend" overflow="visible" orient="auto">
   <path transform="matrix(-.22 0 0 -.22 -2 0)" d="m0 0 2-5-14.5 5 17.5 5z" fill-rule="evenodd" stroke-width="1pt"/>
  </marker>
 </defs>
 <g stroke="#000">
  <g transform="matrix(2.7 0 0 2.7 376.35 -2615.2)" opacity=".3">
   <path d="m-18.065 978.06c0 0.55229-0.22386 1.0523-0.58579 1.4142-0.36193 0.36192-0.86193 0.58578-1.4142 0.58578s-1.0523-0.22386-1.4142-0.58578c-0.36193-0.36193-0.58579-0.86193-0.58579-1.4142 0-0.55228 0.22386-1.0523 0.58579-1.4142s0.86193-0.58579 1.4142-0.58579 1.0523 0.22386 1.4142 0.58579 0.58579 0.86193 0.58579 1.4142z" fill="#fff"/>
   <text x="-21.02791" y="979.27722" fill="#000000" font-family="Arial" font-size="3.3px" stroke="none">5</text>
   <path d="m-12 969-7 7" fill="none" marker-end="url(#Arrow1Mend)" stroke="#000" stroke-width="1.1"/>
   <path d="m-29 969 7 7" fill="none" marker-end="url(#Arrow1Mend)" stroke="#000" stroke-width="1.1"/>
  </g>
  <g transform="matrix(2.7 0 0 2.7 349.35 -2615.2)" opacity=".3">
   <path d="m-18.065 978.06c0 0.55229-0.22386 1.0523-0.58579 1.4142-0.36193 0.36192-0.86193 0.58578-1.4142 0.58578s-1.0523-0.22386-1.4142-0.58578c-0.36193-0.36193-0.58579-0.86193-0.58579-1.4142 0-0.55228 0.22386-1.0523 0.58579-1.4142s0.86193-0.58579 1.4142-0.58579 1.0523 0.22386 1.4142 0.58579 0.58579 0.86193 0.58579 1.4142z" fill="#fff"/>
   <text x="-21.02791" y="979.27722" fill="#000000" font-family="Arial" font-size="3.3px" stroke="none">2</text>
   <path d="m-12 978h-6" fill="none" marker-end="url(#Arrow1Mend)" stroke="#000" stroke-width="1.1"/>
   <path d="m-29 969 7 7" fill="none" marker-end="url(#Arrow1Mend)" stroke="#000" stroke-width="1.1"/>
  </g>
  <g transform="matrix(2.7 0 0 2.7 322.35 -2615.2)" opacity=".05">
   <path d="m-18.065 978.06c0 0.55229-0.22386 1.0523-0.58579 1.4142-0.36193 0.36192-0.86193 0.58578-1.4142 0.58578s-1.0523-0.22386-1.4142-0.58578c-0.36193-0.36193-0.58579-0.86193-0.58579-1.4142 0-0.55228 0.22386-1.0523 0.58579-1.4142s0.86193-0.58579 1.4142-0.58579 1.0523 0.22386 1.4142 0.58579 0.58579 0.86193 0.58579 1.4142z" fill="#fff"/>
   <text x="-21.02791" y="979.27722" fill="#000000" font-family="Arial" font-size="3.3px" stroke="none">-</text>
  </g>
  <g transform="matrix(2.7 0 0 2.7 295.35 -2615.2)" opacity=".3">
   <path d="m-18.065 978.06c0 0.55229-0.22386 1.0523-0.58579 1.4142-0.36193 0.36192-0.86193 0.58578-1.4142 0.58578s-1.0523-0.22386-1.4142-0.58578c-0.36193-0.36193-0.58579-0.86193-0.58579-1.4142 0-0.55228 0.22386-1.0523 0.58579-1.4142s0.86193-0.58579 1.4142-0.58579 1.0523 0.22386 1.4142 0.58579 0.58579 0.86193 0.58579 1.4142z" fill="#fff"/>
   <text x="-21.02791" y="979.27722" fill="#000000" font-family="Arial" font-size="3.3px" stroke="none">5</text>
   <path d="m-12 969-7 7" fill="none" marker-end="url(#Arrow1Mend)" stroke="#000" stroke-width="1.1"/>
   <path d="m-29 969 7 7" fill="none" marker-end="url(#Arrow1Mend)" stroke="#000" stroke-width="1.1"/>
  </g>
  <g transform="matrix(2.7 0 0 2.7 268.35 -2615.2)" opacity=".05">
   <path d="m-18.065 978.06c0 0.55229-0.22386 1.0523-0.58579 1.4142-0.36193 0.36192-0.86193 0.58578-1.4142 0.58578s-1.0523-0.22386-1.4142-0.58578c-0.36193-0.36193-0.58579-0.86193-0.58579-1.4142 0-0.55228 0.22386-1.0523 0.58579-1.4142s0.86193-0.58579 1.4142-0.58579 1.0523 0.22386 1.4142 0.58579 0.58579 0.86193 0.58579 1.4142z" fill="#fff"/>
   <text x="-21.02791" y="979.27722" fill="#000000" font-family="Arial" font-size="3.3px" stroke="none">-</text>
  </g>
  <g transform="matrix(2.7 0 0 2.7 241.35 -2615.2)">
   <path d="m-18.065 978.06c0 0.55229-0.22386 1.0523-0.58579 1.4142-0.36193 0.36192-0.86193 0.58578-1.4142 0.58578s-1.0523-0.22386-1.4142-0.58578c-0.36193-0.36193-0.58579-0.86193-0.58579-1.4142 0-0.55228 0.22386-1.0523 0.58579-1.4142s0.86193-0.58579 1.4142-0.58579 1.0523 0.22386 1.4142 0.58579 0.58579 0.86193 0.58579 1.4142z" fill="#fff"/>
   <text x="-21.02791" y="979.27722" fill="#000000" font-family="Arial" font-size="3.3px" stroke="none">6</text>
   <path d="m-12 969-7 7" fill="none" marker-end="url(#Arrow1Mend)" stroke="#000" stroke-width="1.1"/>
   <path d="m-28 978h6" fill="none" marker-end="url(#Arrow1Mend)" stroke="#000" stroke-width="1.1"/>
  </g>
  <g transform="matrix(2.7 0 0 2.7 214.35 -2615.2)">
   <path d="m-18.065 978.06c0 0.55229-0.22386 1.0523-0.58579 1.4142-0.36193 0.36192-0.86193 0.58578-1.4142 0.58578s-1.0523-0.22386-1.4142-0.58578c-0.36193-0.36193-0.58579-0.86193-0.58579-1.4142 0-0.55228 0.22386-1.0523 0.58579-1.4142s0.86193-0.58579 1.4142-0.58579 1.0523 0.22386 1.4142 0.58579 0.58579 0.86193 0.58579 1.4142z" fill="#fff"/>
   <text x="-21.02791" y="979.27722" fill="#000000" font-family="Arial" font-size="3.3px" stroke="none">5</text>
   <path d="m-12 969-7 7" fill="none" marker-end="url(#Arrow1Mend)" stroke="#000" stroke-width="1.1"/>
   <path d="m-29 969 7 7" fill="none" marker-end="url(#Arrow1Mend)" stroke="#000" stroke-width="1.1"/>
  </g>
  <g transform="matrix(2.7 0 0 2.7 187.35 -2615.2)" opacity=".05">
   <path d="m-18.065 978.06c0 0.55229-0.22386 1.0523-0.58579 1.4142-0.36193 0.36192-0.86193 0.58578-1.4142 0.58578s-1.0523-0.22386-1.4142-0.58578c-0.36193-0.36193-0.58579-0.86193-0.58579-1.4142 0-0.55228 0.22386-1.0523 0.58579-1.4142s0.86193-0.58579 1.4142-0.58579 1.0523 0.22386 1.4142 0.58579 0.58579 0.86193 0.58579 1.4142z" fill="#fff"/>
   <text x="-21.02791" y="979.27722" fill="#000000" font-family="Arial" font-size="3.3px" stroke="none">-</text>
  </g>
  <g transform="matrix(2.7 0 0 2.7 160.35 -2615.2)">
   <path d="m-18.065 978.06c0 0.55229-0.22386 1.0523-0.58579 1.4142-0.36193 0.36192-0.86193 0.58578-1.4142 0.58578s-1.0523-0.22386-1.4142-0.58578c-0.36193-0.36193-0.58579-0.86193-0.58579-1.4142 0-0.55228 0.22386-1.0523 0.58579-1.4142s0.86193-0.58579 1.4142-0.58579 1.0523 0.22386 1.4142 0.58579 0.58579 0.86193 0.58579 1.4142z" fill="#fff"/>
   <text x="-21.02791" y="979.27722" fill="#000000" font-family="Arial" font-size="3.3px" stroke="none">5</text>
   <path d="m-12 969-7 7" fill="none" marker-end="url(#Arrow1Mend)" stroke="#000" stroke-width="1.1"/>
   <path d="m-29 969 7 7" fill="none" marker-end="url(#Arrow1Mend)" stroke="#000" stroke-width="1.1"/>
  </g>
  <g transform="matrix(2.7 0 0 2.7 133.35 -2615.2)">
   <path d="m-18.065 978.06c0 0.55229-0.22386 1.0523-0.58579 1.4142-0.36193 0.36192-0.86193 0.58578-1.4142 0.58578s-1.0523-0.22386-1.4142-0.58578c-0.36193-0.36193-0.58579-0.86193-0.58579-1.4142 0-0.55228 0.22386-1.0523 0.58579-1.4142s0.86193-0.58579 1.4142-0.58579 1.0523 0.22386 1.4142 0.58579 0.58579 0.86193 0.58579 1.4142z" fill="#fff"/>
   <text x="-21.02791" y="979.27722" fill="#000000" font-family="Arial" font-size="3.3px" stroke="none">2</text>
   <path d="m-12 978h-6" fill="none" marker-end="url(#Arrow1Mend)" stroke="#000" stroke-width="1.1"/>
   <path d="m-29 969 7 7" fill="none" marker-end="url(#Arrow1Mend)" stroke="#000" stroke-width="1.1"/>
  </g>
  <g transform="matrix(2.7 0 0 2.7 106.35 -2615.2)" opacity=".05">
   <path d="m-18.065 978.06c0 0.55229-0.22386 1.0523-0.58579 1.4142-0.36193 0.36192-0.86193 0.58578-1.4142 0.58578s-1.0523-0.22386-1.4142-0.58578c-0.36193-0.36193-0.58579-0.86193-0.58579-1.4142 0-0.55228 0.22386-1.0523 0.58579-1.4142s0.86193-0.58579 1.4142-0.58579 1.0523 0.22386 1.4142 0.58579 0.58579 0.86193 0.58579 1.4142z" fill="#fff"/>
   <text x="-21.02791" y="979.27722" fill="#000000" font-family="Arial" font-size="3.3px" stroke="none">-</text>
  </g>
  <g transform="matrix(2.7 0 0 2.7 79.35 -2615.2)">
   <path d="m-18.065 978.06c0 0.55229-0.22386 1.0523-0.58579 1.4142-0.36193 0.36192-0.86193 0.58578-1.4142 0.58578s-1.0523-0.22386-1.4142-0.58578c-0.36193-0.36193-0.58579-0.86193-0.58579-1.4142 0-0.55228 0.22386-1.0523 0.58579-1.4142s0.86193-0.58579 1.4142-0.58579 1.0523 0.22386 1.4142 0.58579 0.58579 0.86193 0.58579 1.4142z" fill="#fff"/>
   <text x="-21.02791" y="979.27722" fill="#000000" font-family="Arial" font-size="3.3px" stroke="none">5</text>
   <path d="m-12 969-7 7" fill="none" marker-end="url(#Arrow1Mend)" stroke="#000" stroke-width="1.1"/>
   <path d="m-29 969 7 7" fill="none" marker-end="url(#Arrow1Mend)" stroke="#000" stroke-width="1.1"/>
  </g>
  <g transform="matrix(2.7 0 0 2.7 349.35 -2588.2)" opacity=".05">
   <path d="m-18.065 978.06c0 0.55229-0.22386 1.0523-0.58579 1.4142-0.36193 0.36192-0.86193 0.58578-1.4142 0.58578s-1.0523-0.22386-1.4142-0.58578c-0.36193-0.36193-0.58579-0.86193-0.58579-1.4142 0-0.55228 0.22386-1.0523 0.58579-1.4142s0.86193-0.58579 1.4142-0.58579 1.0523 0.22386 1.4142 0.58579 0.58579 0.86193 0.58579 1.4142z" fill="#fff"/>
   <text x="-21.02791" y="979.27722" fill="#000000" font-family="Arial" font-size="3.3px" stroke="none">-</text>
  </g>
  <g transform="matrix(2.7 0 0 2.7 322.35 -2588.2)" opacity=".3">
   <path d="m-18.065 978.06c0 0.55229-0.22386 1.0523-0.58579 1.4142-0.36193 0.36192-0.86193 0.58578-1.4142 0.58578s-1.0523-0.22386-1.4142-0.58578c-0.36193-0.36193-0.58579-0.86193-0.58579-1.4142 0-0.55228 0.22386-1.0523 0.58579-1.4142s0.86193-0.58579 1.4142-0.58579 1.0523 0.22386 1.4142 0.58579 0.58579 0.86193 0.58579 1.4142z" fill="#fff"/>
   <text x="-21.02791" y="979.27722" fill="#000000" font-family="Arial" font-size="3.3px" stroke="none">5</text>
   <path d="m-12 969-7 7" fill="none" marker-end="url(#Arrow1Mend)" stroke="#000" stroke-width="1.1"/>
   <path d="m-29 969 7 7" fill="none" marker-end="url(#Arrow1Mend)" stroke="#000" stroke-width="1.1"/>
  </g>
  <g transform="matrix(2.7 0 0 2.7 295.35 -2588.2)" opacity=".05">
   <path d="m-18.065 978.06c0 0.55229-0.22386 1.0523-0.58579 1.4142-0.36193 0.36192-0.86193 0.58578-1.4142 0.58578s-1.0523-0.22386-1.4142-0.58578c-0.36193-0.36193-0.58579-0.86193-0.58579-1.4142 0-0.55228 0.22386-1.0523 0.58579-1.4142s0.86193-0.58579 1.4142-0.58579 1.0523 0.22386 1.4142 0.58579 0.58579 0.86193 0.58579 1.4142z" fill="#fff"/>
   <text x="-21.02791" y="979.27722" fill="#000000" font-family="Arial" font-size="3.3px" stroke="none">-</text>
  </g>
  <g transform="matrix(2.7 0 0 2.7 268.35 -2588.2)">
   <path d="m-18.065 978.06c0 0.55229-0.22386 1.0523-0.58579 1.4142-0.36193 0.36192-0.86193 0.58578-1.4142 0.58578s-1.0523-0.22386-1.4142-0.58578c-0.36193-0.36193-0.58579-0.86193-0.58579-1.4142 0-0.55228 0.22386-1.0523 0.58579-1.4142s0.86193-0.58579 1.4142-0.58579 1.0523 0.22386 1.4142 0.58579 0.58579 0.86193 0.58579 1.4142z" fill="#fff"/>
   <text x="-21.02791" y="979.27722" fill="#000000" font-family="Arial" font-size="3.3px" stroke="none">5</text>
   <path d="m-12 969-7 7" fill="none" marker-end="url(#Arrow1Mend)" stroke="#000" stroke-width="1.1"/>
   <path d="m-29 969 7 7" fill="none" marker-end="url(#Arrow1Mend)" stroke="#000" stroke-width="1.1"/>
  </g>
  <g transform="matrix(2.7 0 0 2.7 241.35 -2588.2)" opacity=".05">
   <path d="m-18.065 978.06c0 0.55229-0.22386 1.0523-0.58579 1.4142-0.36193 0.36192-0.86193 0.58578-1.4142 0.58578s-1.0523-0.22386-1.4142-0.58578c-0.36193-0.36193-0.58579-0.86193-0.58579-1.4142 0-0.55228 0.22386-1.0523 0.58579-1.4142s0.86193-0.58579 1.4142-0.58579 1.0523 0.22386 1.4142 0.58579 0.58579 0.86193 0.58579 1.4142z" fill="#fff"/>
   <text x="-21.02791" y="979.27722" fill="#000000" font-family="Arial" font-size="3.3px" stroke="none">-</text>
  </g>
  <g transform="matrix(2.7 0 0 2.7 214.35 -2588.2)" opacity=".05">
   <path d="m-18.065 978.06c0 0.55229-0.22386 1.0523-0.58579 1.4142-0.36193 0.36192-0.86193 0.58578-1.4142 0.58578s-1.0523-0.22386-1.4142-0.58578c-0.36193-0.36193-0.58579-0.86193-0.58579-1.4142 0-0.55228 0.22386-1.0523 0.58579-1.4142s0.86193-0.58579 1.4142-0.58579 1.0523 0.22386 1.4142 0.58579 0.58579 0.86193 0.58579 1.4142z" fill="#fff"/>
   <text x="-21.02791" y="979.27722" fill="#000000" font-family="Arial" font-size="3.3px" stroke="none">-</text>
  </g>
  <g transform="matrix(2.7 0 0 2.7 187.35 -2588.2)">
   <path d="m-18.065 978.06c0 0.55229-0.22386 1.0523-0.58579 1.4142-0.36193 0.36192-0.86193 0.58578-1.4142 0.58578s-1.0523-0.22386-1.4142-0.58578c-0.36193-0.36193-0.58579-0.86193-0.58579-1.4142 0-0.55228 0.22386-1.0523 0.58579-1.4142s0.86193-0.58579 1.4142-0.58579 1.0523 0.22386 1.4142 0.58579 0.58579 0.86193 0.58579 1.4142z" fill="#fff"/>
   <text x="-21.02791" y="979.27722" fill="#000000" font-family="Arial" font-size="3.3px" stroke="none">5</text>
   <path d="m-12 969-7 7" fill="none" marker-end="url(#Arrow1Mend)" stroke="#000" stroke-width="1.1"/>
   <path d="m-29 969 7 7" fill="none" marker-end="url(#Arrow1Mend)" stroke="#000" stroke-width="1.1"/>
  </g>
  <g transform="matrix(2.7 0 0 2.7 160.35 -2588.2)" opacity=".05">
   <path d="m-18.065 978.06c0 0.55229-0.22386 1.0523-0.58579 1.4142-0.36193 0.36192-0.86193 0.58578-1.4142 0.58578s-1.0523-0.22386-1.4142-0.58578c-0.36193-0.36193-0.58579-0.86193-0.58579-1.4142 0-0.55228 0.22386-1.0523 0.58579-1.4142s0.86193-0.58579 1.4142-0.58579 1.0523 0.22386 1.4142 0.58579 0.58579 0.86193 0.58579 1.4142z" fill="#fff"/>
   <text x="-21.02791" y="979.27722" fill="#000000" font-family="Arial" font-size="3.3px" stroke="none">-</text>
  </g>
  <g transform="matrix(2.7 0 0 2.7 133.35 -2588.2)" opacity=".05">
   <path d="m-18.065 978.06c0 0.55229-0.22386 1.0523-0.58579 1.4142-0.36193 0.36192-0.86193 0.58578-1.4142 0.58578s-1.0523-0.22386-1.4142-0.58578c-0.36193-0.36193-0.58579-0.86193-0.58579-1.4142 0-0.55228 0.22386-1.0523 0.58579-1.4142s0.86193-0.58579 1.4142-0.58579 1.0523 0.22386 1.4142 0.58579 0.58579 0.86193 0.58579 1.4142z" fill="#fff"/>
   <text x="-21.02791" y="979.27722" fill="#000000" font-family="Arial" font-size="3.3px" stroke="none">-</text>
  </g>
  <g transform="matrix(2.7 0 0 2.7 106.35 -2588.2)">
   <path d="m-18.065 978.06c0 0.55229-0.22386 1.0523-0.58579 1.4142-0.36193 0.36192-0.86193 0.58578-1.4142 0.58578s-1.0523-0.22386-1.4142-0.58578c-0.36193-0.36193-0.58579-0.86193-0.58579-1.4142 0-0.55228 0.22386-1.0523 0.58579-1.4142s0.86193-0.58579 1.4142-0.58579 1.0523 0.22386 1.4142 0.58579 0.58579 0.86193 0.58579 1.4142z" fill="#fff"/>
   <text x="-21.02791" y="979.27722" fill="#000000" font-family="Arial" font-size="3.3px" stroke="none">5</text>
   <path d="m-12 969-7 7" fill="none" marker-end="url(#Arrow1Mend)" stroke="#000" stroke-width="1.1"/>
   <path d="m-29 969 7 7" fill="none" marker-end="url(#Arrow1Mend)" stroke="#000" stroke-width="1.1"/>
  </g>
  <g transform="matrix(2.7 0 0 2.7 79.35 -2588.2)" opacity=".05">
   <path d="m-18.065 978.06c0 0.55229-0.22386 1.0523-0.58579 1.4142-0.36193 0.36192-0.86193 0.58578-1.4142 0.58578s-1.0523-0.22386-1.4142-0.58578c-0.36193-0.36193-0.58579-0.86193-0.58579-1.4142 0-0.55228 0.22386-1.0523 0.58579-1.4142s0.86193-0.58579 1.4142-0.58579 1.0523 0.22386 1.4142 0.58579 0.58579 0.86193 0.58579 1.4142z" fill="#fff"/>
   <text x="-21.02791" y="979.27722" fill="#000000" font-family="Arial" font-size="3.3px" stroke="none">-</text>
  </g>
  <g transform="matrix(2.7 0 0 2.7 376.35 -2561.2)" opacity=".3">
   <path d="m-18.065 978.06c0 0.55229-0.22386 1.0523-0.58579 1.4142-0.36193 0.36192-0.86193 0.58578-1.4142 0.58578s-1.0523-0.22386-1.4142-0.58578c-0.36193-0.36193-0.58579-0.86193-0.58579-1.4142 0-0.55228 0.22386-1.0523 0.58579-1.4142s0.86193-0.58579 1.4142-0.58579 1.0523 0.22386 1.4142 0.58579 0.58579 0.86193 0.58579 1.4142z" fill="#fff"/>
   <text x="-21.02791" y="979.27722" fill="#000000" font-family="Arial" font-size="3.3px" stroke="none">6</text>
   <path d="m-12 969-7 7" fill="none" marker-end="url(#Arrow1Mend)" stroke="#000" stroke-width="1.1"/>
   <path d="m-28 978h6" fill="none" marker-end="url(#Arrow1Mend)" stroke="#000" stroke-width="1.1"/>
  </g>
  <g transform="matrix(2.7 0 0 2.7 349.35 -2561.2)" opacity=".3">
   <path d="m-18.065 978.06c0 0.55229-0.22386 1.0523-0.58579 1.4142-0.36193 0.36192-0.86193 0.58578-1.4142 0.58578s-1.0523-0.22386-1.4142-0.58578c-0.36193-0.36193-0.58579-0.86193-0.58579-1.4142 0-0.55228 0.22386-1.0523 0.58579-1.4142s0.86193-0.58579 1.4142-0.58579 1.0523 0.22386 1.4142 0.58579 0.58579 0.86193 0.58579 1.4142z" fill="#fff"/>
   <text x="-21.02791" y="979.27722" fill="#000000" font-family="Arial" font-size="3.3px" stroke="none">C</text>
   <path d="m-20 960v16" fill="none" marker-end="url(#Arrow1Mend)" stroke="#000" stroke-width="1.1"/>
   <path d="m-29 969 7 7" fill="none" marker-end="url(#Arrow1Mend)" stroke="#000" stroke-width="1.1"/>
  </g>
  <g transform="matrix(2.7 0 0 2.7 322.35 -2561.2)" opacity=".05">
   <path d="m-18.065 978.06c0 0.55229-0.22386 1.0523-0.58579 1.4142-0.36193 0.36192-0.86193 0.58578-1.4142 0.58578s-1.0523-0.22386-1.4142-0.58578c-0.36193-0.36193-0.58579-0.86193-0.58579-1.4142 0-0.55228 0.22386-1.0523 0.58579-1.4142s0.86193-0.58579 1.4142-0.58579 1.0523 0.22386 1.4142 0.58579 0.58579 0.86193 0.58579 1.4142z" fill="#fff"/>
   <text x="-21.02791" y="979.27722" fill="#000000" font-family="Arial" font-size="3.3px" stroke="none">-</text>
  </g>
  <g transform="matrix(2.7 0 0 2.7 295.35 -2561.2)" opacity=".3">
   <path d="m-18.065 978.06c0 0.55229-0.22386 1.0523-0.58579 1.4142-0.36193 0.36192-0.86193 0.58578-1.4142 0.58578s-1.0523-0.22386-1.4142-0.58578c-0.36193-0.36193-0.58579-0.86193-0.58579-1.4142 0-0.55228 0.22386-1.0523 0.58579-1.4142s0.86193-0.58579 1.4142-0.58579 1.0523 0.22386 1.4142 0.58579 0.58579 0.86193 0.58579 1.4142z" fill="#fff"/>
   <text x="-21.02791" y="979.27722" fill="#000000" font-family="Arial" font-size="3.3px" stroke="none">5</text>
   <path d="m-12 969-7 7" fill="none" marker-end="url(#Arrow1Mend)" stroke="#000" stroke-width="1.1"/>
   <path d="m-29 969 7 7" fill="none" marker-end="url(#Arrow1Mend)" stroke="#000" stroke-width="1.1"/>
  </g>
  <g transform="matrix(2.7 0 0 2.7 268.35 -2561.2)" opacity=".05">
   <path d="m-18.065 978.06c0 0.55229-0.22386 1.0523-0.58579 1.4142-0.36193 0.36192-0.86193 0.58578-1.4142 0.58578s-1.0523-0.22386-1.4142-0.58578c-0.36193-0.36193-0.58579-0.86193-0.58579-1.4142 0-0.55228 0.22386-1.0523 0.58579-1.4142s0.86193-0.58579 1.4142-0.58579 1.0523 0.22386 1.4142 0.58579 0.58579 0.86193 0.58579 1.4142z" fill="#fff"/>
   <text x="-21.02791" y="979.27722" fill="#000000" font-family="Arial" font-size="3.3px" stroke="none">-</text>
  </g>
  <g transform="matrix(2.7 0 0 2.7 241.35 -2561.2)">
   <path d="m-18.065 978.06c0 0.55229-0.22386 1.0523-0.58579 1.4142-0.36193 0.36192-0.86193 0.58578-1.4142 0.58578s-1.0523-0.22386-1.4142-0.58578c-0.36193-0.36193-0.58579-0.86193-0.58579-1.4142 0-0.55228 0.22386-1.0523 0.58579-1.4142s0.86193-0.58579 1.4142-0.58579 1.0523 0.22386 1.4142 0.58579 0.58579 0.86193 0.58579 1.4142z" fill="#fff"/>
   <text x="-21.02791" y="979.27722" fill="#000000" font-family="Arial" font-size="3.3px" stroke="none">B</text>
   <path d="m-12 969-7 7" fill="none" marker-end="url(#Arrow1Mend)" stroke="#000" stroke-width="1.1"/>
   <path d="m-20 960v16" fill="none" marker-end="url(#Arrow1Mend)" stroke="#000" stroke-width="1.1"/>
  </g>
  <g transform="matrix(2.7 0 0 2.7 214.35 -2561.2)">
   <path d="m-18.065 978.06c0 0.55229-0.22386 1.0523-0.58579 1.4142-0.36193 0.36192-0.86193 0.58578-1.4142 0.58578s-1.0523-0.22386-1.4142-0.58578c-0.36193-0.36193-0.58579-0.86193-0.58579-1.4142 0-0.55228 0.22386-1.0523 0.58579-1.4142s0.86193-0.58579 1.4142-0.58579 1.0523 0.22386 1.4142 0.58579 0.58579 0.86193 0.58579 1.4142z" fill="#fff"/>
   <text x="-21.02791" y="979.27722" fill="#000000" font-family="Arial" font-size="3.3px" stroke="none">2</text>
   <path d="m-12 978h-6" fill="none" marker-end="url(#Arrow1Mend)" stroke="#000" stroke-width="1.1"/>
   <path d="m-29 969 7 7" fill="none" marker-end="url(#Arrow1Mend)" stroke="#000" stroke-width="1.1"/>
  </g>
  <g transform="matrix(2.7 0 0 2.7 187.35 -2561.2)" opacity=".05">
   <path d="m-18.065 978.06c0 0.55229-0.22386 1.0523-0.58579 1.4142-0.36193 0.36192-0.86193 0.58578-1.4142 0.58578s-1.0523-0.22386-1.4142-0.58578c-0.36193-0.36193-0.58579-0.86193-0.58579-1.4142 0-0.55228 0.22386-1.0523 0.58579-1.4142s0.86193-0.58579 1.4142-0.58579 1.0523 0.22386 1.4142 0.58579 0.58579 0.86193 0.58579 1.4142z" fill="#fff"/>
   <text x="-21.02791" y="979.27722" fill="#000000" font-family="Arial" font-size="3.3px" stroke="none">-</text>
  </g>
  <g transform="matrix(2.7 0 0 2.7 160.35 -2561.2)">
   <path d="m-18.065 978.06c0 0.55229-0.22386 1.0523-0.58579 1.4142-0.36193 0.36192-0.86193 0.58578-1.4142 0.58578s-1.0523-0.22386-1.4142-0.58578c-0.36193-0.36193-0.58579-0.86193-0.58579-1.4142 0-0.55228 0.22386-1.0523 0.58579-1.4142s0.86193-0.58579 1.4142-0.58579 1.0523 0.22386 1.4142 0.58579 0.58579 0.86193 0.58579 1.4142z" fill="#fff"/>
   <text x="-21.02791" y="979.27722" fill="#000000" font-family="Arial" font-size="3.3px" stroke="none">6</text>
   <path d="m-12 969-7 7" fill="none" marker-end="url(#Arrow1Mend)" stroke="#000" stroke-width="1.1"/>
   <path d="m-28 978h6" fill="none" marker-end="url(#Arrow1Mend)" stroke="#000" stroke-width="1.1"/>
  </g>
  <g transform="matrix(2.7 0 0 2.7 133.35 -2561.2)">
   <path d="m-18.065 978.06c0 0.55229-0.22386 1.0523-0.58579 1.4142-0.36193 0.36192-0.86193 0.58578-1.4142 0.58578s-1.0523-0.22386-1.4142-0.58578c-0.36193-0.36193-0.58579-0.86193-0.58579-1.4142 0-0.55228 0.22386-1.0523 0.58579-1.4142s0.86193-0.58579 1.4142-0.58579 1.0523 0.22386 1.4142 0.58579 0.58579 0.86193 0.58579 1.4142z" fill="#fff"/>
   <text x="-21.02791" y="979.27722" fill="#000000" font-family="Arial" font-size="3.3px" stroke="none">C</text>
   <path d="m-20 960v16" fill="none" marker-end="url(#Arrow1Mend)" stroke="#000" stroke-width="1.1"/>
   <path d="m-29 969 7 7" fill="none" marker-end="url(#Arrow1Mend)" stroke="#000" stroke-width="1.1"/>
  </g>
  <g transform="matrix(2.7 0 0 2.7 106.35 -2561.2)" opacity=".05">
   <path d="m-18.065 978.06c0 0.55229-0.22386 1.0523-0.58579 1.4142-0.36193 0.36192-0.86193 0.58578-1.4142 0.58578s-1.0523-0.22386-1.4142-0.58578c-0.36193-0.36193-0.58579-0.86193-0.58579-1.4142 0-0.55228 0.22386-1.0523 0.58579-1.4142s0.86193-0.58579 1.4142-0.58579 1.0523 0.22386 1.4142 0.58579 0.58579 0.86193 0.58579 1.4142z" fill="#fff"/>
   <text x="-21.02791" y="979.27722" fill="#000000" font-family="Arial" font-size="3.3px" stroke="none">-</text>
  </g>
  <g transform="matrix(2.7 0 0 2.7 79.35 -2561.2)">
   <path d="m-18.065 978.06c0 0.55229-0.22386 1.0523-0.58579 1.4142-0.36193 0.36192-0.86193 0.58578-1.4142 0.58578s-1.0523-0.22386-1.4142-0.58578c-0.36193-0.36193-0.58579-0.86193-0.58579-1.4142 0-0.55228 0.22386-1.0523 0.58579-1.4142s0.86193-0.58579 1.4142-0.58579 1.0523 0.22386 1.4142 0.58579 0.58579 0.86193 0.58579 1.4142z" fill="#fff"/>
   <text x="-21.02791" y="979.27722" fill="#000000" font-family="Arial" font-size="3.3px" stroke="none">5</text>
   <path d="m-12 969-7 7" fill="none" marker-end="url(#Arrow1Mend)" stroke="#000" stroke-width="1.1"/>
   <path d="m-29 969 7 7" fill="none" marker-end="url(#Arrow1Mend)" stroke="#000" stroke-width="1.1"/>
  </g>
  <g transform="matrix(2.7 0 0 2.7 349.35 -2534.2)" opacity=".3">
   <path d="m-18.065 978.06c0 0.55229-0.22386 1.0523-0.58579 1.4142-0.36193 0.36192-0.86193 0.58578-1.4142 0.58578s-1.0523-0.22386-1.4142-0.58578c-0.36193-0.36193-0.58579-0.86193-0.58579-1.4142 0-0.55228 0.22386-1.0523 0.58579-1.4142s0.86193-0.58579 1.4142-0.58579 1.0523 0.22386 1.4142 0.58579 0.58579 0.86193 0.58579 1.4142z" fill="#fff"/>
   <text x="-21.02791" y="979.27722" fill="#000000" font-family="Arial" font-size="3.3px" stroke="none">6</text>
   <path d="m-12 969-7 7" fill="none" marker-end="url(#Arrow1Mend)" stroke="#000" stroke-width="1.1"/>
   <path d="m-28 978h6" fill="none" marker-end="url(#Arrow1Mend)" stroke="#000" stroke-width="1.1"/>
  </g>
  <g transform="matrix(2.7 0 0 2.7 322.35 -2534.2)" opacity=".3">
   <path d="m-18.065 978.06c0 0.55229-0.22386 1.0523-0.58579 1.4142-0.36193 0.36192-0.86193 0.58578-1.4142 0.58578s-1.0523-0.22386-1.4142-0.58578c-0.36193-0.36193-0.58579-0.86193-0.58579-1.4142 0-0.55228 0.22386-1.0523 0.58579-1.4142s0.86193-0.58579 1.4142-0.58579 1.0523 0.22386 1.4142 0.58579 0.58579 0.86193 0.58579 1.4142z" fill="#fff"/>
   <text x="-21.02791" y="979.27722" fill="#000000" font-family="Arial" font-size="3.3px" stroke="none">5</text>
   <path d="m-12 969-7 7" fill="none" marker-end="url(#Arrow1Mend)" stroke="#000" stroke-width="1.1"/>
   <path d="m-29 969 7 7" fill="none" marker-end="url(#Arrow1Mend)" stroke="#000" stroke-width="1.1"/>
  </g>
  <g transform="matrix(2.7 0 0 2.7 295.35 -2534.2)" opacity=".05">
   <path d="m-18.065 978.06c0 0.55229-0.22386 1.0523-0.58579 1.4142-0.36193 0.36192-0.86193 0.58578-1.4142 0.58578s-1.0523-0.22386-1.4142-0.58578c-0.36193-0.36193-0.58579-0.86193-0.58579-1.4142 0-0.55228 0.22386-1.0523 0.58579-1.4142s0.86193-0.58579 1.4142-0.58579 1.0523 0.22386 1.4142 0.58579 0.58579 0.86193 0.58579 1.4142z" fill="#fff"/>
   <text x="-21.02791" y="979.27722" fill="#000000" font-family="Arial" font-size="3.3px" stroke="none">-</text>
  </g>
  <g transform="matrix(2.7 0 0 2.7 268.35 -2534.2)" opacity=".3">
   <path d="m-18.065 978.06c0 0.55229-0.22386 1.0523-0.58579 1.4142-0.36193 0.36192-0.86193 0.58578-1.4142 0.58578s-1.0523-0.22386-1.4142-0.58578c-0.36193-0.36193-0.58579-0.86193-0.58579-1.4142 0-0.55228 0.22386-1.0523 0.58579-1.4142s0.86193-0.58579 1.4142-0.58579 1.0523 0.22386 1.4142 0.58579 0.58579 0.86193 0.58579 1.4142z" fill="#fff"/>
   <text x="-21.02791" y="979.27722" fill="#000000" font-family="Arial" font-size="3.3px" stroke="none">5</text>
   <path d="m-12 969-7 7" fill="none" marker-end="url(#Arrow1Mend)" stroke="#000" stroke-width="1.1"/>
   <path d="m-29 969 7 7" fill="none" marker-end="url(#Arrow1Mend)" stroke="#000" stroke-width="1.1"/>
  </g>
  <g transform="matrix(2.7 0 0 2.7 241.35 -2534.2)" opacity=".3">
   <path d="m-18.065 978.06c0 0.55229-0.22386 1.0523-0.58579 1.4142-0.36193 0.36192-0.86193 0.58578-1.4142 0.58578s-1.0523-0.22386-1.4142-0.58578c-0.36193-0.36193-0.58579-0.86193-0.58579-1.4142 0-0.55228 0.22386-1.0523 0.58579-1.4142s0.86193-0.58579 1.4142-0.58579 1.0523 0.22386 1.4142 0.58579 0.58579 0.86193 0.58579 1.4142z" fill="#fff"/>
   <text x="-21.02791" y="979.27722" fill="#000000" font-family="Arial" font-size="3.3px" stroke="none">2</text>
   <path d="m-12 978h-6" fill="none" marker-end="url(#Arrow1Mend)" stroke="#000" stroke-width="1.1"/>
   <path d="m-29 969 7 7" fill="none" marker-end="url(#Arrow1Mend)" stroke="#000" stroke-width="1.1"/>
  </g>
  <g transform="matrix(2.7 0 0 2.7 214.35 -2534.2)" opacity=".05">
   <path d="m-18.065 978.06c0 0.55229-0.22386 1.0523-0.58579 1.4142-0.36193 0.36192-0.86193 0.58578-1.4142 0.58578s-1.0523-0.22386-1.4142-0.58578c-0.36193-0.36193-0.58579-0.86193-0.58579-1.4142 0-0.55228 0.22386-1.0523 0.58579-1.4142s0.86193-0.58579 1.4142-0.58579 1.0523 0.22386 1.4142 0.58579 0.58579 0.86193 0.58579 1.4142z" fill="#fff"/>
   <text x="-21.02791" y="979.27722" fill="#000000" font-family="Arial" font-size="3.3px" stroke="none">-</text>
  </g>
  <g transform="matrix(2.7 0 0 2.7 187.35 -2534.2)" opacity=".3">
   <path d="m-18.065 978.06c0 0.55229-0.22386 1.0523-0.58579 1.4142-0.36193 0.36192-0.86193 0.58578-1.4142 0.58578s-1.0523-0.22386-1.4142-0.58578c-0.36193-0.36193-0.58579-0.86193-0.58579-1.4142 0-0.55228 0.22386-1.0523 0.58579-1.4142s0.86193-0.58579 1.4142-0.58579 1.0523 0.22386 1.4142 0.58579 0.58579 0.86193 0.58579 1.4142z" fill="#fff"/>
   <text x="-21.02791" y="979.27722" fill="#000000" font-family="Arial" font-size="3.3px" stroke="none">5</text>
   <path d="m-12 969-7 7" fill="none" marker-end="url(#Arrow1Mend)" stroke="#000" stroke-width="1.1"/>
   <path d="m-29 969 7 7" fill="none" marker-end="url(#Arrow1Mend)" stroke="#000" stroke-width="1.1"/>
  </g>
  <g transform="matrix(2.7 0 0 2.7 160.35 -2534.2)" opacity=".05">
   <path d="m-18.065 978.06c0 0.55229-0.22386 1.0523-0.58579 1.4142-0.36193 0.36192-0.86193 0.58578-1.4142 0.58578s-1.0523-0.22386-1.4142-0.58578c-0.36193-0.36193-0.58579-0.86193-0.58579-1.4142 0-0.55228 0.22386-1.0523 0.58579-1.4142s0.86193-0.58579 1.4142-0.58579 1.0523 0.22386 1.4142 0.58579 0.58579 0.86193 0.58579 1.4142z" fill="#fff"/>
   <text x="-21.02791" y="979.27722" fill="#000000" font-family="Arial" font-size="3.3px" stroke="none">-</text>
  </g>
  <g transform="matrix(2.7 0 0 2.7 133.35 -2534.2)" opacity=".3">
   <path d="m-18.065 978.06c0 0.55229-0.22386 1.0523-0.58579 1.4142-0.36193 0.36192-0.86193 0.58578-1.4142 0.58578s-1.0523-0.22386-1.4142-0.58578c-0.36193-0.36193-0.58579-0.86193-0.58579-1.4142 0-0.55228 0.22386-1.0523 0.58579-1.4142s0.86193-0.58579 1.4142-0.58579 1.0523 0.22386 1.4142 0.58579 0.58579 0.86193 0.58579 1.4142z" fill="#fff"/>
   <text x="-21.02791" y="979.27722" fill="#000000" font-family="Arial" font-size="3.3px" stroke="none">6</text>
   <path d="m-12 969-7 7" fill="none" marker-end="url(#Arrow1Mend)" stroke="#000" stroke-width="1.1"/>
   <path d="m-28 978h6" fill="none" marker-end="url(#Arrow1Mend)" stroke="#000" stroke-width="1.1"/>
  </g>
  <g transform="matrix(2.7 0 0 2.7 106.35 -2534.2)" opacity=".3">
   <path d="m-18.065 978.06c0 0.55229-0.22386 1.0523-0.58579 1.4142-0.36193 0.36192-0.86193 0.58578-1.4142 0.58578s-1.0523-0.22386-1.4142-0.58578c-0.36193-0.36193-0.58579-0.86193-0.58579-1.4142 0-0.55228 0.22386-1.0523 0.58579-1.4142s0.86193-0.58579 1.4142-0.58579 1.0523 0.22386 1.4142 0.58579 0.58579 0.86193 0.58579 1.4142z" fill="#fff"/>
   <text x="-21.02791" y="979.27722" fill="#000000" font-family="Arial" font-size="3.3px" stroke="none">5</text>
   <path d="m-12 969-7 7" fill="none" marker-end="url(#Arrow1Mend)" stroke="#000" stroke-width="1.1"/>
   <path d="m-29 969 7 7" fill="none" marker-end="url(#Arrow1Mend)" stroke="#000" stroke-width="1.1"/>
  </g>
  <g transform="matrix(2.7 0 0 2.7 79.35 -2534.2)" opacity=".05">
   <path d="m-18.065 978.06c0 0.55229-0.22386 1.0523-0.58579 1.4142-0.36193 0.36192-0.86193 0.58578-1.4142 0.58578s-1.0523-0.22386-1.4142-0.58578c-0.36193-0.36193-0.58579-0.86193-0.58579-1.4142 0-0.55228 0.22386-1.0523 0.58579-1.4142s0.86193-0.58579 1.4142-0.58579 1.0523 0.22386 1.4142 0.58579 0.58579 0.86193 0.58579 1.4142z" fill="#fff"/>
   <text x="-21.02791" y="979.27722" fill="#000000" font-family="Arial" font-size="3.3px" stroke="none">-</text>
  </g>
  <g transform="matrix(2.7 0 0 2.7 376.35 -2507.2)" opacity=".3">
   <path d="m-18.065 978.06c0 0.55229-0.22386 1.0523-0.58579 1.4142-0.36193 0.36192-0.86193 0.58578-1.4142 0.58578s-1.0523-0.22386-1.4142-0.58578c-0.36193-0.36193-0.58579-0.86193-0.58579-1.4142 0-0.55228 0.22386-1.0523 0.58579-1.4142s0.86193-0.58579 1.4142-0.58579 1.0523 0.22386 1.4142 0.58579 0.58579 0.86193 0.58579 1.4142z" fill="#fff"/>
   <text x="-21.02791" y="979.27722" fill="#000000" font-family="Arial" font-size="3.3px" stroke="none">5</text>
   <path d="m-12 969-7 7" fill="none" marker-end="url(#Arrow1Mend)" stroke="#000" stroke-width="1.1"/>
   <path d="m-29 969 7 7" fill="none" marker-end="url(#Arrow1Mend)" stroke="#000" stroke-width="1.1"/>
  </g>
  <g transform="matrix(2.7 0 0 2.7 349.35 -2507.2)" opacity=".05">
   <path d="m-18.065 978.06c0 0.55229-0.22386 1.0523-0.58579 1.4142-0.36193 0.36192-0.86193 0.58578-1.4142 0.58578s-1.0523-0.22386-1.4142-0.58578c-0.36193-0.36193-0.58579-0.86193-0.58579-1.4142 0-0.55228 0.22386-1.0523 0.58579-1.4142s0.86193-0.58579 1.4142-0.58579 1.0523 0.22386 1.4142 0.58579 0.58579 0.86193 0.58579 1.4142z" fill="#fff"/>
   <text x="-21.02791" y="979.27722" fill="#000000" font-family="Arial" font-size="3.3px" stroke="none">-</text>
  </g>
  <g transform="matrix(2.7 0 0 2.7 322.35 -2507.2)" opacity=".05">
   <path d="m-18.065 978.06c0 0.55229-0.22386 1.0523-0.58579 1.4142-0.36193 0.36192-0.86193 0.58578-1.4142 0.58578s-1.0523-0.22386-1.4142-0.58578c-0.36193-0.36193-0.58579-0.86193-0.58579-1.4142 0-0.55228 0.22386-1.0523 0.58579-1.4142s0.86193-0.58579 1.4142-0.58579 1.0523 0.22386 1.4142 0.58579 0.58579 0.86193 0.58579 1.4142z" fill="#fff"/>
   <text x="-21.02791" y="979.27722" fill="#000000" font-family="Arial" font-size="3.3px" stroke="none">-</text>
  </g>
  <g transform="matrix(2.7 0 0 2.7 295.35 -2507.2)" opacity=".3">
   <path d="m-18.065 978.06c0 0.55229-0.22386 1.0523-0.58579 1.4142-0.36193 0.36192-0.86193 0.58578-1.4142 0.58578s-1.0523-0.22386-1.4142-0.58578c-0.36193-0.36193-0.58579-0.86193-0.58579-1.4142 0-0.55228 0.22386-1.0523 0.58579-1.4142s0.86193-0.58579 1.4142-0.58579 1.0523 0.22386 1.4142 0.58579 0.58579 0.86193 0.58579 1.4142z" fill="#fff"/>
   <text x="-21.02791" y="979.27722" fill="#000000" font-family="Arial" font-size="3.3px" stroke="none">5</text>
   <path d="m-12 969-7 7" fill="none" marker-end="url(#Arrow1Mend)" stroke="#000" stroke-width="1.1"/>
   <path d="m-29 969 7 7" fill="none" marker-end="url(#Arrow1Mend)" stroke="#000" stroke-width="1.1"/>
  </g>
  <g transform="matrix(2.7 0 0 2.7 268.35 -2507.2)" opacity=".05">
   <path d="m-18.065 978.06c0 0.55229-0.22386 1.0523-0.58579 1.4142-0.36193 0.36192-0.86193 0.58578-1.4142 0.58578s-1.0523-0.22386-1.4142-0.58578c-0.36193-0.36193-0.58579-0.86193-0.58579-1.4142 0-0.55228 0.22386-1.0523 0.58579-1.4142s0.86193-0.58579 1.4142-0.58579 1.0523 0.22386 1.4142 0.58579 0.58579 0.86193 0.58579 1.4142z" fill="#fff"/>
   <text x="-21.02791" y="979.27722" fill="#000000" font-family="Arial" font-size="3.3px" stroke="none">-</text>
  </g>
  <g transform="matrix(2.7 0 0 2.7 241.35 -2507.2)" opacity=".05">
   <path d="m-18.065 978.06c0 0.55229-0.22386 1.0523-0.58579 1.4142-0.36193 0.36192-0.86193 0.58578-1.4142 0.58578s-1.0523-0.22386-1.4142-0.58578c-0.36193-0.36193-0.58579-0.86193-0.58579-1.4142 0-0.55228 0.22386-1.0523 0.58579-1.4142s0.86193-0.58579 1.4142-0.58579 1.0523 0.22386 1.4142 0.58579 0.58579 0.86193 0.58579 1.4142z" fill="#fff"/>
   <text x="-21.02791" y="979.27722" fill="#000000" font-family="Arial" font-size="3.3px" stroke="none">-</text>
  </g>
  <g transform="matrix(2.7 0 0 2.7 214.35 -2507.2)" opacity=".3">
   <path d="m-18.065 978.06c0 0.55229-0.22386 1.0523-0.58579 1.4142-0.36193 0.36192-0.86193 0.58578-1.4142 0.58578s-1.0523-0.22386-1.4142-0.58578c-0.36193-0.36193-0.58579-0.86193-0.58579-1.4142 0-0.55228 0.22386-1.0523 0.58579-1.4142s0.86193-0.58579 1.4142-0.58579 1.0523 0.22386 1.4142 0.58579 0.58579 0.86193 0.58579 1.4142z" fill="#fff"/>
   <text x="-21.02791" y="979.27722" fill="#000000" font-family="Arial" font-size="3.3px" stroke="none">5</text>
   <path d="m-12 969-7 7" fill="none" marker-end="url(#Arrow1Mend)" stroke="#000" stroke-width="1.1"/>
   <path d="m-29 969 7 7" fill="none" marker-end="url(#Arrow1Mend)" stroke="#000" stroke-width="1.1"/>
  </g>
  <g transform="matrix(2.7 0 0 2.7 187.35 -2507.2)" opacity=".05">
   <path d="m-18.065 978.06c0 0.55229-0.22386 1.0523-0.58579 1.4142-0.36193 0.36192-0.86193 0.58578-1.4142 0.58578s-1.0523-0.22386-1.4142-0.58578c-0.36193-0.36193-0.58579-0.86193-0.58579-1.4142 0-0.55228 0.22386-1.0523 0.58579-1.4142s0.86193-0.58579 1.4142-0.58579 1.0523 0.22386 1.4142 0.58579 0.58579 0.86193 0.58579 1.4142z" fill="#fff"/>
   <text x="-21.02791" y="979.27722" fill="#000000" font-family="Arial" font-size="3.3px" stroke="none">-</text>
  </g>
  <g transform="matrix(2.7 0 0 2.7 160.35 -2507.2)" opacity=".3">
   <path d="m-18.065 978.06c0 0.55229-0.22386 1.0523-0.58579 1.4142-0.36193 0.36192-0.86193 0.58578-1.4142 0.58578s-1.0523-0.22386-1.4142-0.58578c-0.36193-0.36193-0.58579-0.86193-0.58579-1.4142 0-0.55228 0.22386-1.0523 0.58579-1.4142s0.86193-0.58579 1.4142-0.58579 1.0523 0.22386 1.4142 0.58579 0.58579 0.86193 0.58579 1.4142z" fill="#fff"/>
   <text x="-21.02791" y="979.27722" fill="#000000" font-family="Arial" font-size="3.3px" stroke="none">5</text>
   <path d="m-12 969-7 7" fill="none" marker-end="url(#Arrow1Mend)" stroke="#000" stroke-width="1.1"/>
   <path d="m-29 969 7 7" fill="none" marker-end="url(#Arrow1Mend)" stroke="#000" stroke-width="1.1"/>
  </g>
  <g transform="matrix(2.7 0 0 2.7 133.35 -2507.2)" opacity=".05">
   <path d="m-18.065 978.06c0 0.55229-0.22386 1.0523-0.58579 1.4142-0.36193 0.36192-0.86193 0.58578-1.4142 0.58578s-1.0523-0.22386-1.4142-0.58578c-0.36193-0.36193-0.58579-0.86193-0.58579-1.4142 0-0.55228 0.22386-1.0523 0.58579-1.4142s0.86193-0.58579 1.4142-0.58579 1.0523 0.22386 1.4142 0.58579 0.58579 0.86193 0.58579 1.4142z" fill="#fff"/>
   <text x="-21.02791" y="979.27722" fill="#000000" font-family="Arial" font-size="3.3px" stroke="none">-</text>
  </g>
  <g transform="matrix(2.7 0 0 2.7 106.35 -2507.2)" opacity=".05">
   <path d="m-18.065 978.06c0 0.55229-0.22386 1.0523-0.58579 1.4142-0.36193 0.36192-0.86193 0.58578-1.4142 0.58578s-1.0523-0.22386-1.4142-0.58578c-0.36193-0.36193-0.58579-0.86193-0.58579-1.4142 0-0.55228 0.22386-1.0523 0.58579-1.4142s0.86193-0.58579 1.4142-0.58579 1.0523 0.22386 1.4142 0.58579 0.58579 0.86193 0.58579 1.4142z" fill="#fff"/>
   <text x="-21.02791" y="979.27722" fill="#000000" font-family="Arial" font-size="3.3px" stroke="none">-</text>
  </g>
  <g transform="matrix(2.7 0 0 2.7 79.35 -2507.2)" opacity=".3">
   <path d="m-18.065 978.06c0 0.55229-0.22386 1.0523-0.58579 1.4142-0.36193 0.36192-0.86193 0.58578-1.4142 0.58578s-1.0523-0.22386-1.4142-0.58578c-0.36193-0.36193-0.58579-0.86193-0.58579-1.4142 0-0.55228 0.22386-1.0523 0.58579-1.4142s0.86193-0.58579 1.4142-0.58579 1.0523 0.22386 1.4142 0.58579 0.58579 0.86193 0.58579 1.4142z" fill="#fff"/>
   <text x="-21.02791" y="979.27722" fill="#000000" font-family="Arial" font-size="3.3px" stroke="none">5</text>
   <path d="m-12 969-7 7" fill="none" marker-end="url(#Arrow1Mend)" stroke="#000" stroke-width="1.1"/>
   <path d="m-29 969 7 7" fill="none" marker-end="url(#Arrow1Mend)" stroke="#000" stroke-width="1.1"/>
  </g>
  <g transform="matrix(2.7 0 0 2.7 349.35 -2480.2)" opacity=".3">
   <path d="m-18.065 978.06c0 0.55229-0.22386 1.0523-0.58579 1.4142-0.36193 0.36192-0.86193 0.58578-1.4142 0.58578s-1.0523-0.22386-1.4142-0.58578c-0.36193-0.36193-0.58579-0.86193-0.58579-1.4142 0-0.55228 0.22386-1.0523 0.58579-1.4142s0.86193-0.58579 1.4142-0.58579 1.0523 0.22386 1.4142 0.58579 0.58579 0.86193 0.58579 1.4142z" fill="#fff"/>
   <text x="-21.02791" y="979.27722" fill="#000000" font-family="Arial" font-size="3.3px" stroke="none">B</text>
   <path d="m-12 969-7 7" fill="none" marker-end="url(#Arrow1Mend)" stroke="#000" stroke-width="1.1"/>
   <path d="m-20 960v16" fill="none" marker-end="url(#Arrow1Mend)" stroke="#000" stroke-width="1.1"/>
  </g>
  <g transform="matrix(2.7 0 0 2.7 322.35 -2480.2)" opacity=".3">
   <path d="m-18.065 978.06c0 0.55229-0.22386 1.0523-0.58579 1.4142-0.36193 0.36192-0.86193 0.58578-1.4142 0.58578s-1.0523-0.22386-1.4142-0.58578c-0.36193-0.36193-0.58579-0.86193-0.58579-1.4142 0-0.55228 0.22386-1.0523 0.58579-1.4142s0.86193-0.58579 1.4142-0.58579 1.0523 0.22386 1.4142 0.58579 0.58579 0.86193 0.58579 1.4142z" fill="#fff"/>
   <text x="-21.02791" y="979.27722" fill="#000000" font-family="Arial" font-size="3.3px" stroke="none">2</text>
   <path d="m-12 978h-6" fill="none" marker-end="url(#Arrow1Mend)" stroke="#000" stroke-width="1.1"/>
   <path d="m-29 969 7 7" fill="none" marker-end="url(#Arrow1Mend)" stroke="#000" stroke-width="1.1"/>
  </g>
  <g transform="matrix(2.7 0 0 2.7 295.35 -2480.2)" opacity=".05">
   <path d="m-18.065 978.06c0 0.55229-0.22386 1.0523-0.58579 1.4142-0.36193 0.36192-0.86193 0.58578-1.4142 0.58578s-1.0523-0.22386-1.4142-0.58578c-0.36193-0.36193-0.58579-0.86193-0.58579-1.4142 0-0.55228 0.22386-1.0523 0.58579-1.4142s0.86193-0.58579 1.4142-0.58579 1.0523 0.22386 1.4142 0.58579 0.58579 0.86193 0.58579 1.4142z" fill="#fff"/>
   <text x="-21.02791" y="979.27722" fill="#000000" font-family="Arial" font-size="3.3px" stroke="none">-</text>
  </g>
  <g transform="matrix(2.7 0 0 2.7 268.35 -2480.2)" opacity=".3">
   <path d="m-18.065 978.06c0 0.55229-0.22386 1.0523-0.58579 1.4142-0.36193 0.36192-0.86193 0.58578-1.4142 0.58578s-1.0523-0.22386-1.4142-0.58578c-0.36193-0.36193-0.58579-0.86193-0.58579-1.4142 0-0.55228 0.22386-1.0523 0.58579-1.4142s0.86193-0.58579 1.4142-0.58579 1.0523 0.22386 1.4142 0.58579 0.58579 0.86193 0.58579 1.4142z" fill="#fff"/>
   <text x="-21.02791" y="979.27722" fill="#000000" font-family="Arial" font-size="3.3px" stroke="none">6</text>
   <path d="m-12 969-7 7" fill="none" marker-end="url(#Arrow1Mend)" stroke="#000" stroke-width="1.1"/>
   <path d="m-28 978h6" fill="none" marker-end="url(#Arrow1Mend)" stroke="#000" stroke-width="1.1"/>
  </g>
  <g transform="matrix(2.7 0 0 2.7 241.35 -2480.2)" opacity=".3">
   <path d="m-18.065 978.06c0 0.55229-0.22386 1.0523-0.58579 1.4142-0.36193 0.36192-0.86193 0.58578-1.4142 0.58578s-1.0523-0.22386-1.4142-0.58578c-0.36193-0.36193-0.58579-0.86193-0.58579-1.4142 0-0.55228 0.22386-1.0523 0.58579-1.4142s0.86193-0.58579 1.4142-0.58579 1.0523 0.22386 1.4142 0.58579 0.58579 0.86193 0.58579 1.4142z" fill="#fff"/>
   <text x="-21.02791" y="979.27722" fill="#000000" font-family="Arial" font-size="3.3px" stroke="none">C</text>
   <path d="m-20 960v16" fill="none" marker-end="url(#Arrow1Mend)" stroke="#000" stroke-width="1.1"/>
   <path d="m-29 969 7 7" fill="none" marker-end="url(#Arrow1Mend)" stroke="#000" stroke-width="1.1"/>
  </g>
  <g transform="matrix(2.7 0 0 2.7 214.35 -2480.2)" opacity=".05">
   <path d="m-18.065 978.06c0 0.55229-0.22386 1.0523-0.58579 1.4142-0.36193 0.36192-0.86193 0.58578-1.4142 0.58578s-1.0523-0.22386-1.4142-0.58578c-0.36193-0.36193-0.58579-0.86193-0.58579-1.4142 0-0.55228 0.22386-1.0523 0.58579-1.4142s0.86193-0.58579 1.4142-0.58579 1.0523 0.22386 1.4142 0.58579 0.58579 0.86193 0.58579 1.4142z" fill="#fff"/>
   <text x="-21.02791" y="979.27722" fill="#000000" font-family="Arial" font-size="3.3px" stroke="none">-</text>
  </g>
  <g transform="matrix(2.7 0 0 2.7 187.35 -2480.2)" opacity=".3">
   <path d="m-18.065 978.06c0 0.55229-0.22386 1.0523-0.58579 1.4142-0.36193 0.36192-0.86193 0.58578-1.4142 0.58578s-1.0523-0.22386-1.4142-0.58578c-0.36193-0.36193-0.58579-0.86193-0.58579-1.4142 0-0.55228 0.22386-1.0523 0.58579-1.4142s0.86193-0.58579 1.4142-0.58579 1.0523 0.22386 1.4142 0.58579 0.58579 0.86193 0.58579 1.4142z" fill="#fff"/>
   <text x="-21.02791" y="979.27722" fill="#000000" font-family="Arial" font-size="3.3px" stroke="none">5</text>
   <path d="m-12 969-7 7" fill="none" marker-end="url(#Arrow1Mend)" stroke="#000" stroke-width="1.1"/>
   <path d="m-29 969 7 7" fill="none" marker-end="url(#Arrow1Mend)" stroke="#000" stroke-width="1.1"/>
  </g>
  <g transform="matrix(2.7 0 0 2.7 160.35 -2480.2)" opacity=".05">
   <path d="m-18.065 978.06c0 0.55229-0.22386 1.0523-0.58579 1.4142-0.36193 0.36192-0.86193 0.58578-1.4142 0.58578s-1.0523-0.22386-1.4142-0.58578c-0.36193-0.36193-0.58579-0.86193-0.58579-1.4142 0-0.55228 0.22386-1.0523 0.58579-1.4142s0.86193-0.58579 1.4142-0.58579 1.0523 0.22386 1.4142 0.58579 0.58579 0.86193 0.58579 1.4142z" fill="#fff"/>
   <text x="-21.02791" y="979.27722" fill="#000000" font-family="Arial" font-size="3.3px" stroke="none">-</text>
  </g>
  <g transform="matrix(2.7 0 0 2.7 133.35 -2480.2)" opacity=".3">
   <path d="m-18.065 978.06c0 0.55229-0.22386 1.0523-0.58579 1.4142-0.36193 0.36192-0.86193 0.58578-1.4142 0.58578s-1.0523-0.22386-1.4142-0.58578c-0.36193-0.36193-0.58579-0.86193-0.58579-1.4142 0-0.55228 0.22386-1.0523 0.58579-1.4142s0.86193-0.58579 1.4142-0.58579 1.0523 0.22386 1.4142 0.58579 0.58579 0.86193 0.58579 1.4142z" fill="#fff"/>
   <text x="-21.02791" y="979.27722" fill="#000000" font-family="Arial" font-size="3.3px" stroke="none">B</text>
   <path d="m-12 969-7 7" fill="none" marker-end="url(#Arrow1Mend)" stroke="#000" stroke-width="1.1"/>
   <path d="m-20 960v16" fill="none" marker-end="url(#Arrow1Mend)" stroke="#000" stroke-width="1.1"/>
  </g>
  <g transform="matrix(2.7 0 0 2.7 106.35 -2480.2)" opacity=".3">
   <path d="m-18.065 978.06c0 0.55229-0.22386 1.0523-0.58579 1.4142-0.36193 0.36192-0.86193 0.58578-1.4142 0.58578s-1.0523-0.22386-1.4142-0.58578c-0.36193-0.36193-0.58579-0.86193-0.58579-1.4142 0-0.55228 0.22386-1.0523 0.58579-1.4142s0.86193-0.58579 1.4142-0.58579 1.0523 0.22386 1.4142 0.58579 0.58579 0.86193 0.58579 1.4142z" fill="#fff"/>
   <text x="-21.02791" y="979.27722" fill="#000000" font-family="Arial" font-size="3.3px" stroke="none">2</text>
   <path d="m-12 978h-6" fill="none" marker-end="url(#Arrow1Mend)" stroke="#000" stroke-width="1.1"/>
   <path d="m-29 969 7 7" fill="none" marker-end="url(#Arrow1Mend)" stroke="#000" stroke-width="1.1"/>
  </g>
  <g transform="matrix(2.7 0 0 2.7 79.35 -2480.2)" opacity=".05">
   <path d="m-18.065 978.06c0 0.55229-0.22386 1.0523-0.58579 1.4142-0.36193 0.36192-0.86193 0.58578-1.4142 0.58578s-1.0523-0.22386-1.4142-0.58578c-0.36193-0.36193-0.58579-0.86193-0.58579-1.4142 0-0.55228 0.22386-1.0523 0.58579-1.4142s0.86193-0.58579 1.4142-0.58579 1.0523 0.22386 1.4142 0.58579 0.58579 0.86193 0.58579 1.4142z" fill="#fff"/>
   <text x="-21.02791" y="979.27722" fill="#000000" font-family="Arial" font-size="3.3px" stroke="none">-</text>
  </g>
  <g transform="matrix(2.7 0 0 2.7 376.35 -2453.2)" opacity=".3">
   <path d="m-18.065 978.06c0 0.55229-0.22386 1.0523-0.58579 1.4142-0.36193 0.36192-0.86193 0.58578-1.4142 0.58578s-1.0523-0.22386-1.4142-0.58578c-0.36193-0.36193-0.58579-0.86193-0.58579-1.4142 0-0.55228 0.22386-1.0523 0.58579-1.4142s0.86193-0.58579 1.4142-0.58579 1.0523 0.22386 1.4142 0.58579 0.58579 0.86193 0.58579 1.4142z" fill="#fff"/>
   <text x="-21.02791" y="979.27722" fill="#000000" font-family="Arial" font-size="3.3px" stroke="none">5</text>
   <path d="m-12 969-7 7" fill="none" marker-end="url(#Arrow1Mend)" stroke="#000" stroke-width="1.1"/>
   <path d="m-29 969 7 7" fill="none" marker-end="url(#Arrow1Mend)" stroke="#000" stroke-width="1.1"/>
  </g>
  <g transform="matrix(2.7 0 0 2.7 349.35 -2453.2)" opacity=".3">
   <path d="m-18.065 978.06c0 0.55229-0.22386 1.0523-0.58579 1.4142-0.36193 0.36192-0.86193 0.58578-1.4142 0.58578s-1.0523-0.22386-1.4142-0.58578c-0.36193-0.36193-0.58579-0.86193-0.58579-1.4142 0-0.55228 0.22386-1.0523 0.58579-1.4142s0.86193-0.58579 1.4142-0.58579 1.0523 0.22386 1.4142 0.58579 0.58579 0.86193 0.58579 1.4142z" fill="#fff"/>
   <text x="-21.02791" y="979.27722" fill="#000000" font-family="Arial" font-size="3.3px" stroke="none">2</text>
   <path d="m-12 978h-6" fill="none" marker-end="url(#Arrow1Mend)" stroke="#000" stroke-width="1.1"/>
   <path d="m-29 969 7 7" fill="none" marker-end="url(#Arrow1Mend)" stroke="#000" stroke-width="1.1"/>
  </g>
  <g transform="matrix(2.7 0 0 2.7 322.35 -2453.2)" opacity=".05">
   <path d="m-18.065 978.06c0 0.55229-0.22386 1.0523-0.58579 1.4142-0.36193 0.36192-0.86193 0.58578-1.4142 0.58578s-1.0523-0.22386-1.4142-0.58578c-0.36193-0.36193-0.58579-0.86193-0.58579-1.4142 0-0.55228 0.22386-1.0523 0.58579-1.4142s0.86193-0.58579 1.4142-0.58579 1.0523 0.22386 1.4142 0.58579 0.58579 0.86193 0.58579 1.4142z" fill="#fff"/>
   <text x="-21.02791" y="979.27722" fill="#000000" font-family="Arial" font-size="3.3px" stroke="none">-</text>
  </g>
  <g transform="matrix(2.7 0 0 2.7 295.35 -2453.2)" opacity=".3">
   <path d="m-18.065 978.06c0 0.55229-0.22386 1.0523-0.58579 1.4142-0.36193 0.36192-0.86193 0.58578-1.4142 0.58578s-1.0523-0.22386-1.4142-0.58578c-0.36193-0.36193-0.58579-0.86193-0.58579-1.4142 0-0.55228 0.22386-1.0523 0.58579-1.4142s0.86193-0.58579 1.4142-0.58579 1.0523 0.22386 1.4142 0.58579 0.58579 0.86193 0.58579 1.4142z" fill="#fff"/>
   <text x="-21.02791" y="979.27722" fill="#000000" font-family="Arial" font-size="3.3px" stroke="none">5</text>
   <path d="m-12 969-7 7" fill="none" marker-end="url(#Arrow1Mend)" stroke="#000" stroke-width="1.1"/>
   <path d="m-29 969 7 7" fill="none" marker-end="url(#Arrow1Mend)" stroke="#000" stroke-width="1.1"/>
  </g>
  <g transform="matrix(2.7 0 0 2.7 268.35 -2453.2)" opacity=".05">
   <path d="m-18.065 978.06c0 0.55229-0.22386 1.0523-0.58579 1.4142-0.36193 0.36192-0.86193 0.58578-1.4142 0.58578s-1.0523-0.22386-1.4142-0.58578c-0.36193-0.36193-0.58579-0.86193-0.58579-1.4142 0-0.55228 0.22386-1.0523 0.58579-1.4142s0.86193-0.58579 1.4142-0.58579 1.0523 0.22386 1.4142 0.58579 0.58579 0.86193 0.58579 1.4142z" fill="#fff"/>
   <text x="-21.02791" y="979.27722" fill="#000000" font-family="Arial" font-size="3.3px" stroke="none">-</text>
  </g>
  <g transform="matrix(2.7 0 0 2.7 241.35 -2453.2)" opacity=".3">
   <path d="m-18.065 978.06c0 0.55229-0.22386 1.0523-0.58579 1.4142-0.36193 0.36192-0.86193 0.58578-1.4142 0.58578s-1.0523-0.22386-1.4142-0.58578c-0.36193-0.36193-0.58579-0.86193-0.58579-1.4142 0-0.55228 0.22386-1.0523 0.58579-1.4142s0.86193-0.58579 1.4142-0.58579 1.0523 0.22386 1.4142 0.58579 0.58579 0.86193 0.58579 1.4142z" fill="#fff"/>
   <text x="-21.02791" y="979.27722" fill="#000000" font-family="Arial" font-size="3.3px" stroke="none">6</text>
   <path d="m-12 969-7 7" fill="none" marker-end="url(#Arrow1Mend)" stroke="#000" stroke-width="1.1"/>
   <path d="m-28 978h6" fill="none" marker-end="url(#Arrow1Mend)" stroke="#000" stroke-width="1.1"/>
  </g>
  <g transform="matrix(2.7 0 0 2.7 214.35 -2453.2)" opacity=".3">
   <path d="m-18.065 978.06c0 0.55229-0.22386 1.0523-0.58579 1.4142-0.36193 0.36192-0.86193 0.58578-1.4142 0.58578s-1.0523-0.22386-1.4142-0.58578c-0.36193-0.36193-0.58579-0.86193-0.58579-1.4142 0-0.55228 0.22386-1.0523 0.58579-1.4142s0.86193-0.58579 1.4142-0.58579 1.0523 0.22386 1.4142 0.58579 0.58579 0.86193 0.58579 1.4142z" fill="#fff"/>
   <text x="-21.02791" y="979.27722" fill="#000000" font-family="Arial" font-size="3.3px" stroke="none">5</text>
   <path d="m-12 969-7 7" fill="none" marker-end="url(#Arrow1Mend)" stroke="#000" stroke-width="1.1"/>
   <path d="m-29 969 7 7" fill="none" marker-end="url(#Arrow1Mend)" stroke="#000" stroke-width="1.1"/>
  </g>
  <g transform="matrix(2.7 0 0 2.7 187.35 -2453.2)" opacity=".05">
   <path d="m-18.065 978.06c0 0.55229-0.22386 1.0523-0.58579 1.4142-0.36193 0.36192-0.86193 0.58578-1.4142 0.58578s-1.0523-0.22386-1.4142-0.58578c-0.36193-0.36193-0.58579-0.86193-0.58579-1.4142 0-0.55228 0.22386-1.0523 0.58579-1.4142s0.86193-0.58579 1.4142-0.58579 1.0523 0.22386 1.4142 0.58579 0.58579 0.86193 0.58579 1.4142z" fill="#fff"/>
   <text x="-21.02791" y="979.27722" fill="#000000" font-family="Arial" font-size="3.3px" stroke="none">-</text>
  </g>
  <g transform="matrix(2.7 0 0 2.7 160.35 -2453.2)" opacity=".3">
   <path d="m-18.065 978.06c0 0.55229-0.22386 1.0523-0.58579 1.4142-0.36193 0.36192-0.86193 0.58578-1.4142 0.58578s-1.0523-0.22386-1.4142-0.58578c-0.36193-0.36193-0.58579-0.86193-0.58579-1.4142 0-0.55228 0.22386-1.0523 0.58579-1.4142s0.86193-0.58579 1.4142-0.58579 1.0523 0.22386 1.4142 0.58579 0.58579 0.86193 0.58579 1.4142z" fill="#fff"/>
   <text x="-21.02791" y="979.27722" fill="#000000" font-family="Arial" font-size="3.3px" stroke="none">5</text>
   <path d="m-12 969-7 7" fill="none" marker-end="url(#Arrow1Mend)" stroke="#000" stroke-width="1.1"/>
   <path d="m-29 969 7 7" fill="none" marker-end="url(#Arrow1Mend)" stroke="#000" stroke-width="1.1"/>
  </g>
  <g transform="matrix(2.7 0 0 2.7 133.35 -2453.2)" opacity=".3">
   <path d="m-18.065 978.06c0 0.55229-0.22386 1.0523-0.58579 1.4142-0.36193 0.36192-0.86193 0.58578-1.4142 0.58578s-1.0523-0.22386-1.4142-0.58578c-0.36193-0.36193-0.58579-0.86193-0.58579-1.4142 0-0.55228 0.22386-1.0523 0.58579-1.4142s0.86193-0.58579 1.4142-0.58579 1.0523 0.22386 1.4142 0.58579 0.58579 0.86193 0.58579 1.4142z" fill="#fff"/>
   <text x="-21.02791" y="979.27722" fill="#000000" font-family="Arial" font-size="3.3px" stroke="none">2</text>
   <path d="m-12 978h-6" fill="none" marker-end="url(#Arrow1Mend)" stroke="#000" stroke-width="1.1"/>
   <path d="m-29 969 7 7" fill="none" marker-end="url(#Arrow1Mend)" stroke="#000" stroke-width="1.1"/>
  </g>
  <g transform="matrix(2.7 0 0 2.7 106.35 -2453.2)" opacity=".05">
   <path d="m-18.065 978.06c0 0.55229-0.22386 1.0523-0.58579 1.4142-0.36193 0.36192-0.86193 0.58578-1.4142 0.58578s-1.0523-0.22386-1.4142-0.58578c-0.36193-0.36193-0.58579-0.86193-0.58579-1.4142 0-0.55228 0.22386-1.0523 0.58579-1.4142s0.86193-0.58579 1.4142-0.58579 1.0523 0.22386 1.4142 0.58579 0.58579 0.86193 0.58579 1.4142z" fill="#fff"/>
   <text x="-21.02791" y="979.27722" fill="#000000" font-family="Arial" font-size="3.3px" stroke="none">-</text>
  </g>
  <g transform="matrix(2.7 0 0 2.7 79.35 -2453.2)" opacity=".3">
   <path d="m-18.065 978.06c0 0.55229-0.22386 1.0523-0.58579 1.4142-0.36193 0.36192-0.86193 0.58578-1.4142 0.58578s-1.0523-0.22386-1.4142-0.58578c-0.36193-0.36193-0.58579-0.86193-0.58579-1.4142 0-0.55228 0.22386-1.0523 0.58579-1.4142s0.86193-0.58579 1.4142-0.58579 1.0523 0.22386 1.4142 0.58579 0.58579 0.86193 0.58579 1.4142z" fill="#fff"/>
   <text x="-21.02791" y="979.27722" fill="#000000" font-family="Arial" font-size="3.3px" stroke="none">5</text>
   <path d="m-12 969-7 7" fill="none" marker-end="url(#Arrow1Mend)" stroke="#000" stroke-width="1.1"/>
   <path d="m-29 969 7 7" fill="none" marker-end="url(#Arrow1Mend)" stroke="#000" stroke-width="1.1"/>
  </g>
  <g transform="matrix(2.7 0 0 2.7 349.35 -2426.2)" opacity=".05">
   <path d="m-18.065 978.06c0 0.55229-0.22386 1.0523-0.58579 1.4142-0.36193 0.36192-0.86193 0.58578-1.4142 0.58578s-1.0523-0.22386-1.4142-0.58578c-0.36193-0.36193-0.58579-0.86193-0.58579-1.4142 0-0.55228 0.22386-1.0523 0.58579-1.4142s0.86193-0.58579 1.4142-0.58579 1.0523 0.22386 1.4142 0.58579 0.58579 0.86193 0.58579 1.4142z" fill="#fff"/>
   <text x="-21.02791" y="979.27722" fill="#000000" font-family="Arial" font-size="3.3px" stroke="none">-</text>
  </g>
  <g transform="matrix(2.7 0 0 2.7 322.35 -2426.2)" opacity=".3">
   <path d="m-18.065 978.06c0 0.55229-0.22386 1.0523-0.58579 1.4142-0.36193 0.36192-0.86193 0.58578-1.4142 0.58578s-1.0523-0.22386-1.4142-0.58578c-0.36193-0.36193-0.58579-0.86193-0.58579-1.4142 0-0.55228 0.22386-1.0523 0.58579-1.4142s0.86193-0.58579 1.4142-0.58579 1.0523 0.22386 1.4142 0.58579 0.58579 0.86193 0.58579 1.4142z" fill="#fff"/>
   <text x="-21.02791" y="979.27722" fill="#000000" font-family="Arial" font-size="3.3px" stroke="none">5</text>
   <path d="m-12 969-7 7" fill="none" marker-end="url(#Arrow1Mend)" stroke="#000" stroke-width="1.1"/>
   <path d="m-29 969 7 7" fill="none" marker-end="url(#Arrow1Mend)" stroke="#000" stroke-width="1.1"/>
  </g>
  <g transform="matrix(2.7 0 0 2.7 295.35 -2426.2)" opacity=".05">
   <path d="m-18.065 978.06c0 0.55229-0.22386 1.0523-0.58579 1.4142-0.36193 0.36192-0.86193 0.58578-1.4142 0.58578s-1.0523-0.22386-1.4142-0.58578c-0.36193-0.36193-0.58579-0.86193-0.58579-1.4142 0-0.55228 0.22386-1.0523 0.58579-1.4142s0.86193-0.58579 1.4142-0.58579 1.0523 0.22386 1.4142 0.58579 0.58579 0.86193 0.58579 1.4142z" fill="#fff"/>
   <text x="-21.02791" y="979.27722" fill="#000000" font-family="Arial" font-size="3.3px" stroke="none">-</text>
  </g>
  <g transform="matrix(2.7 0 0 2.7 268.35 -2426.2)" opacity=".3">
   <path d="m-18.065 978.06c0 0.55229-0.22386 1.0523-0.58579 1.4142-0.36193 0.36192-0.86193 0.58578-1.4142 0.58578s-1.0523-0.22386-1.4142-0.58578c-0.36193-0.36193-0.58579-0.86193-0.58579-1.4142 0-0.55228 0.22386-1.0523 0.58579-1.4142s0.86193-0.58579 1.4142-0.58579 1.0523 0.22386 1.4142 0.58579 0.58579 0.86193 0.58579 1.4142z" fill="#fff"/>
   <text x="-21.02791" y="979.27722" fill="#000000" font-family="Arial" font-size="3.3px" stroke="none">5</text>
   <path d="m-12 969-7 7" fill="none" marker-end="url(#Arrow1Mend)" stroke="#000" stroke-width="1.1"/>
   <path d="m-29 969 7 7" fill="none" marker-end="url(#Arrow1Mend)" stroke="#000" stroke-width="1.1"/>
  </g>
  <g transform="matrix(2.7 0 0 2.7 241.35 -2426.2)" opacity=".05">
   <path d="m-18.065 978.06c0 0.55229-0.22386 1.0523-0.58579 1.4142-0.36193 0.36192-0.86193 0.58578-1.4142 0.58578s-1.0523-0.22386-1.4142-0.58578c-0.36193-0.36193-0.58579-0.86193-0.58579-1.4142 0-0.55228 0.22386-1.0523 0.58579-1.4142s0.86193-0.58579 1.4142-0.58579 1.0523 0.22386 1.4142 0.58579 0.58579 0.86193 0.58579 1.4142z" fill="#fff"/>
   <text x="-21.02791" y="979.27722" fill="#000000" font-family="Arial" font-size="3.3px" stroke="none">-</text>
  </g>
  <g transform="matrix(2.7 0 0 2.7 214.35 -2426.2)" opacity=".05">
   <path d="m-18.065 978.06c0 0.55229-0.22386 1.0523-0.58579 1.4142-0.36193 0.36192-0.86193 0.58578-1.4142 0.58578s-1.0523-0.22386-1.4142-0.58578c-0.36193-0.36193-0.58579-0.86193-0.58579-1.4142 0-0.55228 0.22386-1.0523 0.58579-1.4142s0.86193-0.58579 1.4142-0.58579 1.0523 0.22386 1.4142 0.58579 0.58579 0.86193 0.58579 1.4142z" fill="#fff"/>
   <text x="-21.02791" y="979.27722" fill="#000000" font-family="Arial" font-size="3.3px" stroke="none">-</text>
  </g>
  <g transform="matrix(2.7 0 0 2.7 187.35 -2426.2)" opacity=".3">
   <path d="m-18.065 978.06c0 0.55229-0.22386 1.0523-0.58579 1.4142-0.36193 0.36192-0.86193 0.58578-1.4142 0.58578s-1.0523-0.22386-1.4142-0.58578c-0.36193-0.36193-0.58579-0.86193-0.58579-1.4142 0-0.55228 0.22386-1.0523 0.58579-1.4142s0.86193-0.58579 1.4142-0.58579 1.0523 0.22386 1.4142 0.58579 0.58579 0.86193 0.58579 1.4142z" fill="#fff"/>
   <text x="-21.02791" y="979.27722" fill="#000000" font-family="Arial" font-size="3.3px" stroke="none">5</text>
   <path d="m-12 969-7 7" fill="none" marker-end="url(#Arrow1Mend)" stroke="#000" stroke-width="1.1"/>
   <path d="m-29 969 7 7" fill="none" marker-end="url(#Arrow1Mend)" stroke="#000" stroke-width="1.1"/>
  </g>
  <g transform="matrix(2.7 0 0 2.7 160.35 -2426.2)" opacity=".05">
   <path d="m-18.065 978.06c0 0.55229-0.22386 1.0523-0.58579 1.4142-0.36193 0.36192-0.86193 0.58578-1.4142 0.58578s-1.0523-0.22386-1.4142-0.58578c-0.36193-0.36193-0.58579-0.86193-0.58579-1.4142 0-0.55228 0.22386-1.0523 0.58579-1.4142s0.86193-0.58579 1.4142-0.58579 1.0523 0.22386 1.4142 0.58579 0.58579 0.86193 0.58579 1.4142z" fill="#fff"/>
   <text x="-21.02791" y="979.27722" fill="#000000" font-family="Arial" font-size="3.3px" stroke="none">-</text>
  </g>
  <g transform="matrix(2.7 0 0 2.7 133.35 -2426.2)" opacity=".05">
   <path d="m-18.065 978.06c0 0.55229-0.22386 1.0523-0.58579 1.4142-0.36193 0.36192-0.86193 0.58578-1.4142 0.58578s-1.0523-0.22386-1.4142-0.58578c-0.36193-0.36193-0.58579-0.86193-0.58579-1.4142 0-0.55228 0.22386-1.0523 0.58579-1.4142s0.86193-0.58579 1.4142-0.58579 1.0523 0.22386 1.4142 0.58579 0.58579 0.86193 0.58579 1.4142z" fill="#fff"/>
   <text x="-21.02791" y="979.27722" fill="#000000" font-family="Arial" font-size="3.3px" stroke="none">-</text>
  </g>
  <g transform="matrix(2.7 0 0 2.7 106.35 -2426.2)" opacity=".3">
   <path d="m-18.065 978.06c0 0.55229-0.22386 1.0523-0.58579 1.4142-0.36193 0.36192-0.86193 0.58578-1.4142 0.58578s-1.0523-0.22386-1.4142-0.58578c-0.36193-0.36193-0.58579-0.86193-0.58579-1.4142 0-0.55228 0.22386-1.0523 0.58579-1.4142s0.86193-0.58579 1.4142-0.58579 1.0523 0.22386 1.4142 0.58579 0.58579 0.86193 0.58579 1.4142z" fill="#fff"/>
   <text x="-21.02791" y="979.27722" fill="#000000" font-family="Arial" font-size="3.3px" stroke="none">5</text>
   <path d="m-12 969-7 7" fill="none" marker-end="url(#Arrow1Mend)" stroke="#000" stroke-width="1.1"/>
   <path d="m-29 969 7 7" fill="none" marker-end="url(#Arrow1Mend)" stroke="#000" stroke-width="1.1"/>
  </g>
  <g transform="matrix(2.7 0 0 2.7 79.35 -2426.2)" opacity=".05">
   <path d="m-18.065 978.06c0 0.55229-0.22386 1.0523-0.58579 1.4142-0.36193 0.36192-0.86193 0.58578-1.4142 0.58578s-1.0523-0.22386-1.4142-0.58578c-0.36193-0.36193-0.58579-0.86193-0.58579-1.4142 0-0.55228 0.22386-1.0523 0.58579-1.4142s0.86193-0.58579 1.4142-0.58579 1.0523 0.22386 1.4142 0.58579 0.58579 0.86193 0.58579 1.4142z" fill="#fff"/>
   <text x="-21.02791" y="979.27722" fill="#000000" font-family="Arial" font-size="3.3px" stroke="none">-</text>
  </g>
  <g transform="matrix(2.7 0 0 2.7 376.35 -2399.2)" opacity=".3">
   <path d="m-18.065 978.06c0 0.55229-0.22386 1.0523-0.58579 1.4142-0.36193 0.36192-0.86193 0.58578-1.4142 0.58578s-1.0523-0.22386-1.4142-0.58578c-0.36193-0.36193-0.58579-0.86193-0.58579-1.4142 0-0.55228 0.22386-1.0523 0.58579-1.4142s0.86193-0.58579 1.4142-0.58579 1.0523 0.22386 1.4142 0.58579 0.58579 0.86193 0.58579 1.4142z" fill="#fff"/>
   <text x="-21.02791" y="979.27722" fill="#000000" font-family="Arial" font-size="3.3px" stroke="none">6</text>
   <path d="m-12 969-7 7" fill="none" marker-end="url(#Arrow1Mend)" stroke="#000" stroke-width="1.1"/>
   <path d="m-28 978h6" fill="none" marker-end="url(#Arrow1Mend)" stroke="#000" stroke-width="1.1"/>
  </g>
  <g transform="matrix(2.7 0 0 2.7 349.35 -2399.2)" opacity=".3">
   <path d="m-18.065 978.06c0 0.55229-0.22386 1.0523-0.58579 1.4142-0.36193 0.36192-0.86193 0.58578-1.4142 0.58578s-1.0523-0.22386-1.4142-0.58578c-0.36193-0.36193-0.58579-0.86193-0.58579-1.4142 0-0.55228 0.22386-1.0523 0.58579-1.4142s0.86193-0.58579 1.4142-0.58579 1.0523 0.22386 1.4142 0.58579 0.58579 0.86193 0.58579 1.4142z" fill="#fff"/>
   <text x="-21.02791" y="979.27722" fill="#000000" font-family="Arial" font-size="3.3px" stroke="none">C</text>
   <path d="m-20 960v16" fill="none" marker-end="url(#Arrow1Mend)" stroke="#000" stroke-width="1.1"/>
   <path d="m-29 969 7 7" fill="none" marker-end="url(#Arrow1Mend)" stroke="#000" stroke-width="1.1"/>
  </g>
  <g transform="matrix(2.7 0 0 2.7 322.35 -2399.2)" opacity=".05">
   <path d="m-18.065 978.06c0 0.55229-0.22386 1.0523-0.58579 1.4142-0.36193 0.36192-0.86193 0.58578-1.4142 0.58578s-1.0523-0.22386-1.4142-0.58578c-0.36193-0.36193-0.58579-0.86193-0.58579-1.4142 0-0.55228 0.22386-1.0523 0.58579-1.4142s0.86193-0.58579 1.4142-0.58579 1.0523 0.22386 1.4142 0.58579 0.58579 0.86193 0.58579 1.4142z" fill="#fff"/>
   <text x="-21.02791" y="979.27722" fill="#000000" font-family="Arial" font-size="3.3px" stroke="none">-</text>
  </g>
  <g transform="matrix(2.7 0 0 2.7 295.35 -2399.2)" opacity=".3">
   <path d="m-18.065 978.06c0 0.55229-0.22386 1.0523-0.58579 1.4142-0.36193 0.36192-0.86193 0.58578-1.4142 0.58578s-1.0523-0.22386-1.4142-0.58578c-0.36193-0.36193-0.58579-0.86193-0.58579-1.4142 0-0.55228 0.22386-1.0523 0.58579-1.4142s0.86193-0.58579 1.4142-0.58579 1.0523 0.22386 1.4142 0.58579 0.58579 0.86193 0.58579 1.4142z" fill="#fff"/>
   <text x="-21.02791" y="979.27722" fill="#000000" font-family="Arial" font-size="3.3px" stroke="none">5</text>
   <path d="m-12 969-7 7" fill="none" marker-end="url(#Arrow1Mend)" stroke="#000" stroke-width="1.1"/>
   <path d="m-29 969 7 7" fill="none" marker-end="url(#Arrow1Mend)" stroke="#000" stroke-width="1.1"/>
  </g>
  <g transform="matrix(2.7 0 0 2.7 268.35 -2399.2)" opacity=".05">
   <path d="m-18.065 978.06c0 0.55229-0.22386 1.0523-0.58579 1.4142-0.36193 0.36192-0.86193 0.58578-1.4142 0.58578s-1.0523-0.22386-1.4142-0.58578c-0.36193-0.36193-0.58579-0.86193-0.58579-1.4142 0-0.55228 0.22386-1.0523 0.58579-1.4142s0.86193-0.58579 1.4142-0.58579 1.0523 0.22386 1.4142 0.58579 0.58579 0.86193 0.58579 1.4142z" fill="#fff"/>
   <text x="-21.02791" y="979.27722" fill="#000000" font-family="Arial" font-size="3.3px" stroke="none">-</text>
  </g>
  <g transform="matrix(2.7 0 0 2.7 241.35 -2399.2)" opacity=".3">
   <path d="m-18.065 978.06c0 0.55229-0.22386 1.0523-0.58579 1.4142-0.36193 0.36192-0.86193 0.58578-1.4142 0.58578s-1.0523-0.22386-1.4142-0.58578c-0.36193-0.36193-0.58579-0.86193-0.58579-1.4142 0-0.55228 0.22386-1.0523 0.58579-1.4142s0.86193-0.58579 1.4142-0.58579 1.0523 0.22386 1.4142 0.58579 0.58579 0.86193 0.58579 1.4142z" fill="#fff"/>
   <text x="-21.02791" y="979.27722" fill="#000000" font-family="Arial" font-size="3.3px" stroke="none">B</text>
   <path d="m-12 969-7 7" fill="none" marker-end="url(#Arrow1Mend)" stroke="#000" stroke-width="1.1"/>
   <path d="m-20 960v16" fill="none" marker-end="url(#Arrow1Mend)" stroke="#000" stroke-width="1.1"/>
  </g>
  <g transform="matrix(2.7 0 0 2.7 214.35 -2399.2)" opacity=".3">
   <path d="m-18.065 978.06c0 0.55229-0.22386 1.0523-0.58579 1.4142-0.36193 0.36192-0.86193 0.58578-1.4142 0.58578s-1.0523-0.22386-1.4142-0.58578c-0.36193-0.36193-0.58579-0.86193-0.58579-1.4142 0-0.55228 0.22386-1.0523 0.58579-1.4142s0.86193-0.58579 1.4142-0.58579 1.0523 0.22386 1.4142 0.58579 0.58579 0.86193 0.58579 1.4142z" fill="#fff"/>
   <text x="-21.02791" y="979.27722" fill="#000000" font-family="Arial" font-size="3.3px" stroke="none">2</text>
   <path d="m-12 978h-6" fill="none" marker-end="url(#Arrow1Mend)" stroke="#000" stroke-width="1.1"/>
   <path d="m-29 969 7 7" fill="none" marker-end="url(#Arrow1Mend)" stroke="#000" stroke-width="1.1"/>
  </g>
  <g transform="matrix(2.7 0 0 2.7 187.35 -2399.2)" opacity=".05">
   <path d="m-18.065 978.06c0 0.55229-0.22386 1.0523-0.58579 1.4142-0.36193 0.36192-0.86193 0.58578-1.4142 0.58578s-1.0523-0.22386-1.4142-0.58578c-0.36193-0.36193-0.58579-0.86193-0.58579-1.4142 0-0.55228 0.22386-1.0523 0.58579-1.4142s0.86193-0.58579 1.4142-0.58579 1.0523 0.22386 1.4142 0.58579 0.58579 0.86193 0.58579 1.4142z" fill="#fff"/>
   <text x="-21.02791" y="979.27722" fill="#000000" font-family="Arial" font-size="3.3px" stroke="none">-</text>
  </g>
  <g transform="matrix(2.7 0 0 2.7 160.35 -2399.2)" opacity=".3">
   <path d="m-18.065 978.06c0 0.55229-0.22386 1.0523-0.58579 1.4142-0.36193 0.36192-0.86193 0.58578-1.4142 0.58578s-1.0523-0.22386-1.4142-0.58578c-0.36193-0.36193-0.58579-0.86193-0.58579-1.4142 0-0.55228 0.22386-1.0523 0.58579-1.4142s0.86193-0.58579 1.4142-0.58579 1.0523 0.22386 1.4142 0.58579 0.58579 0.86193 0.58579 1.4142z" fill="#fff"/>
   <text x="-21.02791" y="979.27722" fill="#000000" font-family="Arial" font-size="3.3px" stroke="none">6</text>
   <path d="m-12 969-7 7" fill="none" marker-end="url(#Arrow1Mend)" stroke="#000" stroke-width="1.1"/>
   <path d="m-28 978h6" fill="none" marker-end="url(#Arrow1Mend)" stroke="#000" stroke-width="1.1"/>
  </g>
  <g transform="matrix(2.7 0 0 2.7 133.35 -2399.2)" opacity=".3">
   <path d="m-18.065 978.06c0 0.55229-0.22386 1.0523-0.58579 1.4142-0.36193 0.36192-0.86193 0.58578-1.4142 0.58578s-1.0523-0.22386-1.4142-0.58578c-0.36193-0.36193-0.58579-0.86193-0.58579-1.4142 0-0.55228 0.22386-1.0523 0.58579-1.4142s0.86193-0.58579 1.4142-0.58579 1.0523 0.22386 1.4142 0.58579 0.58579 0.86193 0.58579 1.4142z" fill="#fff"/>
   <text x="-21.02791" y="979.27722" fill="#000000" font-family="Arial" font-size="3.3px" stroke="none">C</text>
   <path d="m-20 960v16" fill="none" marker-end="url(#Arrow1Mend)" stroke="#000" stroke-width="1.1"/>
   <path d="m-29 969 7 7" fill="none" marker-end="url(#Arrow1Mend)" stroke="#000" stroke-width="1.1"/>
  </g>
  <g transform="matrix(2.7 0 0 2.7 106.35 -2399.2)" opacity=".05">
   <path d="m-18.065 978.06c0 0.55229-0.22386 1.0523-0.58579 1.4142-0.36193 0.36192-0.86193 0.58578-1.4142 0.58578s-1.0523-0.22386-1.4142-0.58578c-0.36193-0.36193-0.58579-0.86193-0.58579-1.4142 0-0.55228 0.22386-1.0523 0.58579-1.4142s0.86193-0.58579 1.4142-0.58579 1.0523 0.22386 1.4142 0.58579 0.58579 0.86193 0.58579 1.4142z" fill="#fff"/>
   <text x="-21.02791" y="979.27722" fill="#000000" font-family="Arial" font-size="3.3px" stroke="none">-</text>
  </g>
  <g transform="matrix(2.7 0 0 2.7 79.35 -2399.2)" opacity=".3">
   <path d="m-18.065 978.06c0 0.55229-0.22386 1.0523-0.58579 1.4142-0.36193 0.36192-0.86193 0.58578-1.4142 0.58578s-1.0523-0.22386-1.4142-0.58578c-0.36193-0.36193-0.58579-0.86193-0.58579-1.4142 0-0.55228 0.22386-1.0523 0.58579-1.4142s0.86193-0.58579 1.4142-0.58579 1.0523 0.22386 1.4142 0.58579 0.58579 0.86193 0.58579 1.4142z" fill="#fff"/>
   <text x="-21.02791" y="979.27722" fill="#000000" font-family="Arial" font-size="3.3px" stroke="none">5</text>
   <path d="m-12 969-7 7" fill="none" marker-end="url(#Arrow1Mend)" stroke="#000" stroke-width="1.1"/>
   <path d="m-29 969 7 7" fill="none" marker-end="url(#Arrow1Mend)" stroke="#000" stroke-width="1.1"/>
  </g>
  <g transform="matrix(2.7 0 0 2.7 349.35 -2372.2)" opacity=".3">
   <path d="m-18.065 978.06c0 0.55229-0.22386 1.0523-0.58579 1.4142-0.36193 0.36192-0.86193 0.58578-1.4142 0.58578s-1.0523-0.22386-1.4142-0.58578c-0.36193-0.36193-0.58579-0.86193-0.58579-1.4142 0-0.55228 0.22386-1.0523 0.58579-1.4142s0.86193-0.58579 1.4142-0.58579 1.0523 0.22386 1.4142 0.58579 0.58579 0.86193 0.58579 1.4142z" fill="#fff"/>
   <text x="-21.02791" y="979.27722" fill="#000000" font-family="Arial" font-size="3.3px" stroke="none">6</text>
   <path d="m-12 969-7 7" fill="none" marker-end="url(#Arrow1Mend)" stroke="#000" stroke-width="1.1"/>
   <path d="m-28 978h6" fill="none" marker-end="url(#Arrow1Mend)" stroke="#000" stroke-width="1.1"/>
  </g>
  <g transform="matrix(2.7 0 0 2.7 322.35 -2372.2)" opacity=".3">
   <path d="m-18.065 978.06c0 0.55229-0.22386 1.0523-0.58579 1.4142-0.36193 0.36192-0.86193 0.58578-1.4142 0.58578s-1.0523-0.22386-1.4142-0.58578c-0.36193-0.36193-0.58579-0.86193-0.58579-1.4142 0-0.55228 0.22386-1.0523 0.58579-1.4142s0.86193-0.58579 1.4142-0.58579 1.0523 0.22386 1.4142 0.58579 0.58579 0.86193 0.58579 1.4142z" fill="#fff"/>
   <text x="-21.02791" y="979.27722" fill="#000000" font-family="Arial" font-size="3.3px" stroke="none">5</text>
   <path d="m-12 969-7 7" fill="none" marker-end="url(#Arrow1Mend)" stroke="#000" stroke-width="1.1"/>
   <path d="m-29 969 7 7" fill="none" marker-end="url(#Arrow1Mend)" stroke="#000" stroke-width="1.1"/>
  </g>
  <g transform="matrix(2.7 0 0 2.7 295.35 -2372.2)" opacity=".05">
   <path d="m-18.065 978.06c0 0.55229-0.22386 1.0523-0.58579 1.4142-0.36193 0.36192-0.86193 0.58578-1.4142 0.58578s-1.0523-0.22386-1.4142-0.58578c-0.36193-0.36193-0.58579-0.86193-0.58579-1.4142 0-0.55228 0.22386-1.0523 0.58579-1.4142s0.86193-0.58579 1.4142-0.58579 1.0523 0.22386 1.4142 0.58579 0.58579 0.86193 0.58579 1.4142z" fill="#fff"/>
   <text x="-21.02791" y="979.27722" fill="#000000" font-family="Arial" font-size="3.3px" stroke="none">-</text>
  </g>
  <g transform="matrix(2.7 0 0 2.7 268.35 -2372.2)" opacity=".3">
   <path d="m-18.065 978.06c0 0.55229-0.22386 1.0523-0.58579 1.4142-0.36193 0.36192-0.86193 0.58578-1.4142 0.58578s-1.0523-0.22386-1.4142-0.58578c-0.36193-0.36193-0.58579-0.86193-0.58579-1.4142 0-0.55228 0.22386-1.0523 0.58579-1.4142s0.86193-0.58579 1.4142-0.58579 1.0523 0.22386 1.4142 0.58579 0.58579 0.86193 0.58579 1.4142z" fill="#fff"/>
   <text x="-21.02791" y="979.27722" fill="#000000" font-family="Arial" font-size="3.3px" stroke="none">5</text>
   <path d="m-12 969-7 7" fill="none" marker-end="url(#Arrow1Mend)" stroke="#000" stroke-width="1.1"/>
   <path d="m-29 969 7 7" fill="none" marker-end="url(#Arrow1Mend)" stroke="#000" stroke-width="1.1"/>
  </g>
  <g transform="matrix(2.7 0 0 2.7 241.35 -2372.2)" opacity=".3">
   <path d="m-18.065 978.06c0 0.55229-0.22386 1.0523-0.58579 1.4142-0.36193 0.36192-0.86193 0.58578-1.4142 0.58578s-1.0523-0.22386-1.4142-0.58578c-0.36193-0.36193-0.58579-0.86193-0.58579-1.4142 0-0.55228 0.22386-1.0523 0.58579-1.4142s0.86193-0.58579 1.4142-0.58579 1.0523 0.22386 1.4142 0.58579 0.58579 0.86193 0.58579 1.4142z" fill="#fff"/>
   <text x="-21.02791" y="979.27722" fill="#000000" font-family="Arial" font-size="3.3px" stroke="none">2</text>
   <path d="m-12 978h-6" fill="none" marker-end="url(#Arrow1Mend)" stroke="#000" stroke-width="1.1"/>
   <path d="m-29 969 7 7" fill="none" marker-end="url(#Arrow1Mend)" stroke="#000" stroke-width="1.1"/>
  </g>
  <g transform="matrix(2.7 0 0 2.7 214.35 -2372.2)" opacity=".05">
   <path d="m-18.065 978.06c0 0.55229-0.22386 1.0523-0.58579 1.4142-0.36193 0.36192-0.86193 0.58578-1.4142 0.58578s-1.0523-0.22386-1.4142-0.58578c-0.36193-0.36193-0.58579-0.86193-0.58579-1.4142 0-0.55228 0.22386-1.0523 0.58579-1.4142s0.86193-0.58579 1.4142-0.58579 1.0523 0.22386 1.4142 0.58579 0.58579 0.86193 0.58579 1.4142z" fill="#fff"/>
   <text x="-21.02791" y="979.27722" fill="#000000" font-family="Arial" font-size="3.3px" stroke="none">-</text>
  </g>
  <g transform="matrix(2.7 0 0 2.7 187.35 -2372.2)" opacity=".3">
   <path d="m-18.065 978.06c0 0.55229-0.22386 1.0523-0.58579 1.4142-0.36193 0.36192-0.86193 0.58578-1.4142 0.58578s-1.0523-0.22386-1.4142-0.58578c-0.36193-0.36193-0.58579-0.86193-0.58579-1.4142 0-0.55228 0.22386-1.0523 0.58579-1.4142s0.86193-0.58579 1.4142-0.58579 1.0523 0.22386 1.4142 0.58579 0.58579 0.86193 0.58579 1.4142z" fill="#fff"/>
   <text x="-21.02791" y="979.27722" fill="#000000" font-family="Arial" font-size="3.3px" stroke="none">5</text>
   <path d="m-12 969-7 7" fill="none" marker-end="url(#Arrow1Mend)" stroke="#000" stroke-width="1.1"/>
   <path d="m-29 969 7 7" fill="none" marker-end="url(#Arrow1Mend)" stroke="#000" stroke-width="1.1"/>
  </g>
  <g transform="matrix(2.7 0 0 2.7 160.35 -2372.2)" opacity=".05">
   <path d="m-18.065 978.06c0 0.55229-0.22386 1.0523-0.58579 1.4142-0.36193 0.36192-0.86193 0.58578-1.4142 0.58578s-1.0523-0.22386-1.4142-0.58578c-0.36193-0.36193-0.58579-0.86193-0.58579-1.4142 0-0.55228 0.22386-1.0523 0.58579-1.4142s0.86193-0.58579 1.4142-0.58579 1.0523 0.22386 1.4142 0.58579 0.58579 0.86193 0.58579 1.4142z" fill="#fff"/>
   <text x="-21.02791" y="979.27722" fill="#000000" font-family="Arial" font-size="3.3px" stroke="none">-</text>
  </g>
  <g transform="matrix(2.7 0 0 2.7 133.35 -2372.2)" opacity=".3">
   <path d="m-18.065 978.06c0 0.55229-0.22386 1.0523-0.58579 1.4142-0.36193 0.36192-0.86193 0.58578-1.4142 0.58578s-1.0523-0.22386-1.4142-0.58578c-0.36193-0.36193-0.58579-0.86193-0.58579-1.4142 0-0.55228 0.22386-1.0523 0.58579-1.4142s0.86193-0.58579 1.4142-0.58579 1.0523 0.22386 1.4142 0.58579 0.58579 0.86193 0.58579 1.4142z" fill="#fff"/>
   <text x="-21.02791" y="979.27722" fill="#000000" font-family="Arial" font-size="3.3px" stroke="none">6</text>
   <path d="m-12 969-7 7" fill="none" marker-end="url(#Arrow1Mend)" stroke="#000" stroke-width="1.1"/>
   <path d="m-28 978h6" fill="none" marker-end="url(#Arrow1Mend)" stroke="#000" stroke-width="1.1"/>
  </g>
  <g transform="matrix(2.7 0 0 2.7 106.35 -2372.2)" opacity=".3">
   <path d="m-18.065 978.06c0 0.55229-0.22386 1.0523-0.58579 1.4142-0.36193 0.36192-0.86193 0.58578-1.4142 0.58578s-1.0523-0.22386-1.4142-0.58578c-0.36193-0.36193-0.58579-0.86193-0.58579-1.4142 0-0.55228 0.22386-1.0523 0.58579-1.4142s0.86193-0.58579 1.4142-0.58579 1.0523 0.22386 1.4142 0.58579 0.58579 0.86193 0.58579 1.4142z" fill="#fff"/>
   <text x="-21.02791" y="979.27722" fill="#000000" font-family="Arial" font-size="3.3px" stroke="none">5</text>
   <path d="m-12 969-7 7" fill="none" marker-end="url(#Arrow1Mend)" stroke="#000" stroke-width="1.1"/>
   <path d="m-29 969 7 7" fill="none" marker-end="url(#Arrow1Mend)" stroke="#000" stroke-width="1.1"/>
  </g>
  <g transform="matrix(2.7 0 0 2.7 79.35 -2372.2)" opacity=".05">
   <path d="m-18.065 978.06c0 0.55229-0.22386 1.0523-0.58579 1.4142-0.36193 0.36192-0.86193 0.58578-1.4142 0.58578s-1.0523-0.22386-1.4142-0.58578c-0.36193-0.36193-0.58579-0.86193-0.58579-1.4142 0-0.55228 0.22386-1.0523 0.58579-1.4142s0.86193-0.58579 1.4142-0.58579 1.0523 0.22386 1.4142 0.58579 0.58579 0.86193 0.58579 1.4142z" fill="#fff"/>
   <text x="-21.02791" y="979.27722" fill="#000000" font-family="Arial" font-size="3.3px" stroke="none">-</text>
  </g>
  <g transform="matrix(2.7 0 0 2.7 376.35 -2345.2)" opacity=".3">
   <path d="m-18.065 978.06c0 0.55229-0.22386 1.0523-0.58579 1.4142-0.36193 0.36192-0.86193 0.58578-1.4142 0.58578s-1.0523-0.22386-1.4142-0.58578c-0.36193-0.36193-0.58579-0.86193-0.58579-1.4142 0-0.55228 0.22386-1.0523 0.58579-1.4142s0.86193-0.58579 1.4142-0.58579 1.0523 0.22386 1.4142 0.58579 0.58579 0.86193 0.58579 1.4142z" fill="#fff"/>
   <text x="-21.02791" y="979.27722" fill="#000000" font-family="Arial" font-size="3.3px" stroke="none">5</text>
   <path d="m-12 969-7 7" fill="none" marker-end="url(#Arrow1Mend)" stroke="#000" stroke-width="1.1"/>
   <path d="m-29 969 7 7" fill="none" marker-end="url(#Arrow1Mend)" stroke="#000" stroke-width="1.1"/>
  </g>
  <g transform="matrix(2.7 0 0 2.7 349.35 -2345.2)" opacity=".05">
   <path d="m-18.065 978.06c0 0.55229-0.22386 1.0523-0.58579 1.4142-0.36193 0.36192-0.86193 0.58578-1.4142 0.58578s-1.0523-0.22386-1.4142-0.58578c-0.36193-0.36193-0.58579-0.86193-0.58579-1.4142 0-0.55228 0.22386-1.0523 0.58579-1.4142s0.86193-0.58579 1.4142-0.58579 1.0523 0.22386 1.4142 0.58579 0.58579 0.86193 0.58579 1.4142z" fill="#fff"/>
   <text x="-21.02791" y="979.27722" fill="#000000" font-family="Arial" font-size="3.3px" stroke="none">-</text>
  </g>
  <g transform="matrix(2.7 0 0 2.7 322.35 -2345.2)" opacity=".05">
   <path d="m-18.065 978.06c0 0.55229-0.22386 1.0523-0.58579 1.4142-0.36193 0.36192-0.86193 0.58578-1.4142 0.58578s-1.0523-0.22386-1.4142-0.58578c-0.36193-0.36193-0.58579-0.86193-0.58579-1.4142 0-0.55228 0.22386-1.0523 0.58579-1.4142s0.86193-0.58579 1.4142-0.58579 1.0523 0.22386 1.4142 0.58579 0.58579 0.86193 0.58579 1.4142z" fill="#fff"/>
   <text x="-21.02791" y="979.27722" fill="#000000" font-family="Arial" font-size="3.3px" stroke="none">-</text>
  </g>
  <g transform="matrix(2.7 0 0 2.7 295.35 -2345.2)" opacity=".3">
   <path d="m-18.065 978.06c0 0.55229-0.22386 1.0523-0.58579 1.4142-0.36193 0.36192-0.86193 0.58578-1.4142 0.58578s-1.0523-0.22386-1.4142-0.58578c-0.36193-0.36193-0.58579-0.86193-0.58579-1.4142 0-0.55228 0.22386-1.0523 0.58579-1.4142s0.86193-0.58579 1.4142-0.58579 1.0523 0.22386 1.4142 0.58579 0.58579 0.86193 0.58579 1.4142z" fill="#fff"/>
   <text x="-21.02791" y="979.27722" fill="#000000" font-family="Arial" font-size="3.3px" stroke="none">5</text>
   <path d="m-12 969-7 7" fill="none" marker-end="url(#Arrow1Mend)" stroke="#000" stroke-width="1.1"/>
   <path d="m-29 969 7 7" fill="none" marker-end="url(#Arrow1Mend)" stroke="#000" stroke-width="1.1"/>
  </g>
  <g transform="matrix(2.7 0 0 2.7 268.35 -2345.2)" opacity=".05">
   <path d="m-18.065 978.06c0 0.55229-0.22386 1.0523-0.58579 1.4142-0.36193 0.36192-0.86193 0.58578-1.4142 0.58578s-1.0523-0.22386-1.4142-0.58578c-0.36193-0.36193-0.58579-0.86193-0.58579-1.4142 0-0.55228 0.22386-1.0523 0.58579-1.4142s0.86193-0.58579 1.4142-0.58579 1.0523 0.22386 1.4142 0.58579 0.58579 0.86193 0.58579 1.4142z" fill="#fff"/>
   <text x="-21.02791" y="979.27722" fill="#000000" font-family="Arial" font-size="3.3px" stroke="none">-</text>
  </g>
  <g transform="matrix(2.7 0 0 2.7 241.35 -2345.2)" opacity=".05">
   <path d="m-18.065 978.06c0 0.55229-0.22386 1.0523-0.58579 1.4142-0.36193 0.36192-0.86193 0.58578-1.4142 0.58578s-1.0523-0.22386-1.4142-0.58578c-0.36193-0.36193-0.58579-0.86193-0.58579-1.4142 0-0.55228 0.22386-1.0523 0.58579-1.4142s0.86193-0.58579 1.4142-0.58579 1.0523 0.22386 1.4142 0.58579 0.58579 0.86193 0.58579 1.4142z" fill="#fff"/>
   <text x="-21.02791" y="979.27722" fill="#000000" font-family="Arial" font-size="3.3px" stroke="none">-</text>
  </g>
  <g transform="matrix(2.7 0 0 2.7 214.35 -2345.2)" opacity=".3">
   <path d="m-18.065 978.06c0 0.55229-0.22386 1.0523-0.58579 1.4142-0.36193 0.36192-0.86193 0.58578-1.4142 0.58578s-1.0523-0.22386-1.4142-0.58578c-0.36193-0.36193-0.58579-0.86193-0.58579-1.4142 0-0.55228 0.22386-1.0523 0.58579-1.4142s0.86193-0.58579 1.4142-0.58579 1.0523 0.22386 1.4142 0.58579 0.58579 0.86193 0.58579 1.4142z" fill="#fff"/>
   <text x="-21.02791" y="979.27722" fill="#000000" font-family="Arial" font-size="3.3px" stroke="none">5</text>
   <path d="m-12 969-7 7" fill="none" marker-end="url(#Arrow1Mend)" stroke="#000" stroke-width="1.1"/>
   <path d="m-29 969 7 7" fill="none" marker-end="url(#Arrow1Mend)" stroke="#000" stroke-width="1.1"/>
  </g>
  <g transform="matrix(2.7 0 0 2.7 187.35 -2345.2)" opacity=".05">
   <path d="m-18.065 978.06c0 0.55229-0.22386 1.0523-0.58579 1.4142-0.36193 0.36192-0.86193 0.58578-1.4142 0.58578s-1.0523-0.22386-1.4142-0.58578c-0.36193-0.36193-0.58579-0.86193-0.58579-1.4142 0-0.55228 0.22386-1.0523 0.58579-1.4142s0.86193-0.58579 1.4142-0.58579 1.0523 0.22386 1.4142 0.58579 0.58579 0.86193 0.58579 1.4142z" fill="#fff"/>
   <text x="-21.02791" y="979.27722" fill="#000000" font-family="Arial" font-size="3.3px" stroke="none">-</text>
  </g>
  <g transform="matrix(2.7 0 0 2.7 160.35 -2345.2)" opacity=".3">
   <path d="m-18.065 978.06c0 0.55229-0.22386 1.0523-0.58579 1.4142-0.36193 0.36192-0.86193 0.58578-1.4142 0.58578s-1.0523-0.22386-1.4142-0.58578c-0.36193-0.36193-0.58579-0.86193-0.58579-1.4142 0-0.55228 0.22386-1.0523 0.58579-1.4142s0.86193-0.58579 1.4142-0.58579 1.0523 0.22386 1.4142 0.58579 0.58579 0.86193 0.58579 1.4142z" fill="#fff"/>
   <text x="-21.02791" y="979.27722" fill="#000000" font-family="Arial" font-size="3.3px" stroke="none">5</text>
   <path d="m-12 969-7 7" fill="none" marker-end="url(#Arrow1Mend)" stroke="#000" stroke-width="1.1"/>
   <path d="m-29 969 7 7" fill="none" marker-end="url(#Arrow1Mend)" stroke="#000" stroke-width="1.1"/>
  </g>
  <g transform="matrix(2.7 0 0 2.7 133.35 -2345.2)" opacity=".05">
   <path d="m-18.065 978.06c0 0.55229-0.22386 1.0523-0.58579 1.4142-0.36193 0.36192-0.86193 0.58578-1.4142 0.58578s-1.0523-0.22386-1.4142-0.58578c-0.36193-0.36193-0.58579-0.86193-0.58579-1.4142 0-0.55228 0.22386-1.0523 0.58579-1.4142s0.86193-0.58579 1.4142-0.58579 1.0523 0.22386 1.4142 0.58579 0.58579 0.86193 0.58579 1.4142z" fill="#fff"/>
   <text x="-21.02791" y="979.27722" fill="#000000" font-family="Arial" font-size="3.3px" stroke="none">-</text>
  </g>
  <g transform="matrix(2.7 0 0 2.7 106.35 -2345.2)" opacity=".05">
   <path d="m-18.065 978.06c0 0.55229-0.22386 1.0523-0.58579 1.4142-0.36193 0.36192-0.86193 0.58578-1.4142 0.58578s-1.0523-0.22386-1.4142-0.58578c-0.36193-0.36193-0.58579-0.86193-0.58579-1.4142 0-0.55228 0.22386-1.0523 0.58579-1.4142s0.86193-0.58579 1.4142-0.58579 1.0523 0.22386 1.4142 0.58579 0.58579 0.86193 0.58579 1.4142z" fill="#fff"/>
   <text x="-21.02791" y="979.27722" fill="#000000" font-family="Arial" font-size="3.3px" stroke="none">-</text>
  </g>
  <g transform="matrix(2.7 0 0 2.7 79.35 -2345.2)" opacity=".3">
   <path d="m-18.065 978.06c0 0.55229-0.22386 1.0523-0.58579 1.4142-0.36193 0.36192-0.86193 0.58578-1.4142 0.58578s-1.0523-0.22386-1.4142-0.58578c-0.36193-0.36193-0.58579-0.86193-0.58579-1.4142 0-0.55228 0.22386-1.0523 0.58579-1.4142s0.86193-0.58579 1.4142-0.58579 1.0523 0.22386 1.4142 0.58579 0.58579 0.86193 0.58579 1.4142z" fill="#fff"/>
   <text x="-21.02791" y="979.27722" fill="#000000" font-family="Arial" font-size="3.3px" stroke="none">5</text>
   <path d="m-12 969-7 7" fill="none" marker-end="url(#Arrow1Mend)" stroke="#000" stroke-width="1.1"/>
   <path d="m-29 969 7 7" fill="none" marker-end="url(#Arrow1Mend)" stroke="#000" stroke-width="1.1"/>
  </g>
  <g transform="matrix(2.7 0 0 2.7 349.35 -2318.2)" opacity=".3">
   <path d="m-18.065 978.06c0 0.55229-0.22386 1.0523-0.58579 1.4142-0.36193 0.36192-0.86193 0.58578-1.4142 0.58578s-1.0523-0.22386-1.4142-0.58578c-0.36193-0.36193-0.58579-0.86193-0.58579-1.4142 0-0.55228 0.22386-1.0523 0.58579-1.4142s0.86193-0.58579 1.4142-0.58579 1.0523 0.22386 1.4142 0.58579 0.58579 0.86193 0.58579 1.4142z" fill="#fff"/>
   <text x="-21.02791" y="979.27722" fill="#000000" font-family="Arial" font-size="3.3px" stroke="none">B</text>
   <path d="m-12 969-7 7" fill="none" marker-end="url(#Arrow1Mend)" stroke="#000" stroke-width="1.1"/>
   <path d="m-20 960v16" fill="none" marker-end="url(#Arrow1Mend)" stroke="#000" stroke-width="1.1"/>
  </g>
  <g transform="matrix(2.7 0 0 2.7 322.35 -2318.2)" opacity=".3">
   <path d="m-18.065 978.06c0 0.55229-0.22386 1.0523-0.58579 1.4142-0.36193 0.36192-0.86193 0.58578-1.4142 0.58578s-1.0523-0.22386-1.4142-0.58578c-0.36193-0.36193-0.58579-0.86193-0.58579-1.4142 0-0.55228 0.22386-1.0523 0.58579-1.4142s0.86193-0.58579 1.4142-0.58579 1.0523 0.22386 1.4142 0.58579 0.58579 0.86193 0.58579 1.4142z" fill="#fff"/>
   <text x="-21.02791" y="979.27722" fill="#000000" font-family="Arial" font-size="3.3px" stroke="none">2</text>
   <path d="m-12 978h-6" fill="none" marker-end="url(#Arrow1Mend)" stroke="#000" stroke-width="1.1"/>
   <path d="m-29 969 7 7" fill="none" marker-end="url(#Arrow1Mend)" stroke="#000" stroke-width="1.1"/>
  </g>
  <g transform="matrix(2.7 0 0 2.7 268.35 -2318.2)" opacity=".3">
   <path d="m-18.065 978.06c0 0.55229-0.22386 1.0523-0.58579 1.4142-0.36193 0.36192-0.86193 0.58578-1.4142 0.58578s-1.0523-0.22386-1.4142-0.58578c-0.36193-0.36193-0.58579-0.86193-0.58579-1.4142 0-0.55228 0.22386-1.0523 0.58579-1.4142s0.86193-0.58579 1.4142-0.58579 1.0523 0.22386 1.4142 0.58579 0.58579 0.86193 0.58579 1.4142z" fill="#fff"/>
   <text x="-21.02791" y="979.27722" fill="#000000" font-family="Arial" font-size="3.3px" stroke="none">6</text>
   <path d="m-12 969-7 7" fill="none" marker-end="url(#Arrow1Mend)" stroke="#000" stroke-width="1.1"/>
   <path d="m-28 978h6" fill="none" marker-end="url(#Arrow1Mend)" stroke="#000" stroke-width="1.1"/>
  </g>
  <g transform="matrix(2.7 0 0 2.7 241.35 -2318.2)" opacity=".3">
   <path d="m-18.065 978.06c0 0.55229-0.22386 1.0523-0.58579 1.4142-0.36193 0.36192-0.86193 0.58578-1.4142 0.58578s-1.0523-0.22386-1.4142-0.58578c-0.36193-0.36193-0.58579-0.86193-0.58579-1.4142 0-0.55228 0.22386-1.0523 0.58579-1.4142s0.86193-0.58579 1.4142-0.58579 1.0523 0.22386 1.4142 0.58579 0.58579 0.86193 0.58579 1.4142z" fill="#fff"/>
   <text x="-21.02791" y="979.27722" fill="#000000" font-family="Arial" font-size="3.3px" stroke="none">C</text>
   <path d="m-20 960v16" fill="none" marker-end="url(#Arrow1Mend)" stroke="#000" stroke-width="1.1"/>
   <path d="m-29 969 7 7" fill="none" marker-end="url(#Arrow1Mend)" stroke="#000" stroke-width="1.1"/>
  </g>
  <g transform="matrix(2.7 0 0 2.7 187.35 -2318.2)" opacity=".3">
   <path d="m-18.065 978.06c0 0.55229-0.22386 1.0523-0.58579 1.4142-0.36193 0.36192-0.86193 0.58578-1.4142 0.58578s-1.0523-0.22386-1.4142-0.58578c-0.36193-0.36193-0.58579-0.86193-0.58579-1.4142 0-0.55228 0.22386-1.0523 0.58579-1.4142s0.86193-0.58579 1.4142-0.58579 1.0523 0.22386 1.4142 0.58579 0.58579 0.86193 0.58579 1.4142z" fill="#fff"/>
   <text x="-21.02791" y="979.27722" fill="#000000" font-family="Arial" font-size="3.3px" stroke="none">5</text>
   <path d="m-12 969-7 7" fill="none" marker-end="url(#Arrow1Mend)" stroke="#000" stroke-width="1.1"/>
   <path d="m-29 969 7 7" fill="none" marker-end="url(#Arrow1Mend)" stroke="#000" stroke-width="1.1"/>
  </g>
  <g transform="matrix(2.7 0 0 2.7 133.35 -2318.2)" opacity=".3">
   <path d="m-18.065 978.06c0 0.55229-0.22386 1.0523-0.58579 1.4142-0.36193 0.36192-0.86193 0.58578-1.4142 0.58578s-1.0523-0.22386-1.4142-0.58578c-0.36193-0.36193-0.58579-0.86193-0.58579-1.4142 0-0.55228 0.22386-1.0523 0.58579-1.4142s0.86193-0.58579 1.4142-0.58579 1.0523 0.22386 1.4142 0.58579 0.58579 0.86193 0.58579 1.4142z" fill="#fff"/>
   <text x="-21.02791" y="979.27722" fill="#000000" font-family="Arial" font-size="3.3px" stroke="none">B</text>
   <path d="m-12 969-7 7" fill="none" marker-end="url(#Arrow1Mend)" stroke="#000" stroke-width="1.1"/>
   <path d="m-20 960v16" fill="none" marker-end="url(#Arrow1Mend)" stroke="#000" stroke-width="1.1"/>
  </g>
  <g transform="matrix(2.7 0 0 2.7 106.35 -2318.2)" opacity=".3">
   <path d="m-18.065 978.06c0 0.55229-0.22386 1.0523-0.58579 1.4142-0.36193 0.36192-0.86193 0.58578-1.4142 0.58578s-1.0523-0.22386-1.4142-0.58578c-0.36193-0.36193-0.58579-0.86193-0.58579-1.4142 0-0.55228 0.22386-1.0523 0.58579-1.4142s0.86193-0.58579 1.4142-0.58579 1.0523 0.22386 1.4142 0.58579 0.58579 0.86193 0.58579 1.4142z" fill="#fff"/>
   <text x="-21.02791" y="979.27722" fill="#000000" font-family="Arial" font-size="3.3px" stroke="none">2</text>
   <path d="m-12 978h-6" fill="none" marker-end="url(#Arrow1Mend)" stroke="#000" stroke-width="1.1"/>
   <path d="m-29 969 7 7" fill="none" marker-end="url(#Arrow1Mend)" stroke="#000" stroke-width="1.1"/>
  </g>
 </g>
</svg>
